<mxfile host="Electron" modified="2024-01-11T17:04:41.202Z" agent="Mozilla/5.0 (Windows NT 10.0; Win64; x64) AppleWebKit/537.36 (KHTML, like Gecko) draw.io/22.1.18 Chrome/120.0.6099.199 Electron/28.1.2 Safari/537.36" etag="ya-19EEghhtD43BDw-xZ" version="22.1.18" type="device" pages="4">
  <diagram name="1 - Simple" id="q0egpQZ8KYpkAmShUZTU">
    <mxGraphModel dx="1434" dy="854" grid="1" gridSize="10" guides="1" tooltips="1" connect="1" arrows="1" fold="1" page="1" pageScale="1" pageWidth="1169" pageHeight="827" math="0" shadow="0">
      <root>
        <mxCell id="9MxRitJ3T_ylOguGFz6E-0" />
        <mxCell id="9MxRitJ3T_ylOguGFz6E-1" parent="9MxRitJ3T_ylOguGFz6E-0" />
        <mxCell id="9MxRitJ3T_ylOguGFz6E-3" value="Catalog Web API" style="rounded=1;whiteSpace=wrap;html=1;" parent="9MxRitJ3T_ylOguGFz6E-1" vertex="1">
          <mxGeometry x="520" y="230" width="120" height="80" as="geometry" />
        </mxCell>
        <mxCell id="9MxRitJ3T_ylOguGFz6E-4" value="Catalog&lt;br&gt;database" style="shape=cylinder3;whiteSpace=wrap;html=1;boundedLbl=1;backgroundOutline=1;size=15;" parent="9MxRitJ3T_ylOguGFz6E-1" vertex="1">
          <mxGeometry x="680" y="230" width="120" height="80" as="geometry" />
        </mxCell>
        <mxCell id="9MxRitJ3T_ylOguGFz6E-7" value="" style="endArrow=classic;startArrow=classic;html=1;rounded=0;exitX=1;exitY=0.5;exitDx=0;exitDy=0;entryX=0;entryY=0.5;entryDx=0;entryDy=0;entryPerimeter=0;" parent="9MxRitJ3T_ylOguGFz6E-1" source="9MxRitJ3T_ylOguGFz6E-3" target="9MxRitJ3T_ylOguGFz6E-4" edge="1">
          <mxGeometry width="50" height="50" relative="1" as="geometry">
            <mxPoint x="620" y="520" as="sourcePoint" />
            <mxPoint x="670" y="470" as="targetPoint" />
          </mxGeometry>
        </mxCell>
        <mxCell id="9MxRitJ3T_ylOguGFz6E-20" value="" style="shape=actor;whiteSpace=wrap;html=1;" parent="9MxRitJ3T_ylOguGFz6E-1" vertex="1">
          <mxGeometry x="40" y="240" width="40" height="80" as="geometry" />
        </mxCell>
        <mxCell id="9MxRitJ3T_ylOguGFz6E-21" value="Web Frontend" style="rounded=0;whiteSpace=wrap;html=1;verticalAlign=top;" parent="9MxRitJ3T_ylOguGFz6E-1" vertex="1">
          <mxGeometry x="120" y="200" width="150" height="130" as="geometry" />
        </mxCell>
        <mxCell id="9MxRitJ3T_ylOguGFz6E-24" value="{&lt;br style=&quot;border-color: var(--border-color);&quot;&gt;&quot;id&quot;: 1,&lt;br style=&quot;border-color: var(--border-color);&quot;&gt;&quot;name&quot;: &quot;User 1&quot;&lt;br style=&quot;border-color: var(--border-color);&quot;&gt;}" style="rounded=0;whiteSpace=wrap;html=1;verticalAlign=middle;" parent="9MxRitJ3T_ylOguGFz6E-1" vertex="1">
          <mxGeometry x="320" y="230" width="120" height="80" as="geometry" />
        </mxCell>
        <mxCell id="9MxRitJ3T_ylOguGFz6E-28" value="Catalog client&lt;br&gt;request/response" style="rounded=0;whiteSpace=wrap;html=1;" parent="9MxRitJ3T_ylOguGFz6E-1" vertex="1">
          <mxGeometry x="135" y="230" width="120" height="80" as="geometry" />
        </mxCell>
        <mxCell id="9MxRitJ3T_ylOguGFz6E-37" value="" style="endArrow=classic;startArrow=classic;html=1;rounded=0;exitX=1;exitY=0.5;exitDx=0;exitDy=0;entryX=0;entryY=0.5;entryDx=0;entryDy=0;" parent="9MxRitJ3T_ylOguGFz6E-1" source="9MxRitJ3T_ylOguGFz6E-28" target="9MxRitJ3T_ylOguGFz6E-24" edge="1">
          <mxGeometry width="50" height="50" relative="1" as="geometry">
            <mxPoint x="290" y="560" as="sourcePoint" />
            <mxPoint x="340" y="510" as="targetPoint" />
          </mxGeometry>
        </mxCell>
        <mxCell id="9MxRitJ3T_ylOguGFz6E-40" value="" style="endArrow=classic;startArrow=classic;html=1;rounded=0;exitX=1;exitY=0.5;exitDx=0;exitDy=0;entryX=0;entryY=0.5;entryDx=0;entryDy=0;" parent="9MxRitJ3T_ylOguGFz6E-1" source="9MxRitJ3T_ylOguGFz6E-24" target="9MxRitJ3T_ylOguGFz6E-3" edge="1">
          <mxGeometry width="50" height="50" relative="1" as="geometry">
            <mxPoint x="480" y="380" as="sourcePoint" />
            <mxPoint x="530" y="330" as="targetPoint" />
          </mxGeometry>
        </mxCell>
        <mxCell id="F6VrdfDy4s8TdI1WQZJD-1" value="&lt;h1&gt;Simple Web app&lt;/h1&gt;&lt;p&gt;One frontend&lt;/p&gt;&lt;p&gt;One Web API client with single response style&lt;/p&gt;&lt;p&gt;One Web API with s&lt;span style=&quot;background-color: initial;&quot;&gt;im&lt;/span&gt;&lt;span style=&quot;background-color: initial;&quot;&gt;ple CORS&lt;/span&gt;&lt;/p&gt;" style="text;html=1;strokeColor=none;fillColor=none;spacing=5;spacingTop=-20;whiteSpace=wrap;overflow=hidden;rounded=0;" parent="9MxRitJ3T_ylOguGFz6E-1" vertex="1">
          <mxGeometry x="480" y="400" width="350" height="200" as="geometry" />
        </mxCell>
      </root>
    </mxGraphModel>
  </diagram>
  <diagram name="2 - Multyservice" id="XARpsoAakkj1NcRgovLU">
    <mxGraphModel dx="1434" dy="854" grid="1" gridSize="10" guides="1" tooltips="1" connect="1" arrows="1" fold="1" page="1" pageScale="1" pageWidth="1169" pageHeight="827" math="0" shadow="0">
      <root>
        <mxCell id="0" />
        <mxCell id="1" parent="0" />
        <mxCell id="l7NquEVj2FEaSE6BUuNS-1" value="People Web API" style="rounded=1;whiteSpace=wrap;html=1;" parent="1" vertex="1">
          <mxGeometry x="640" y="280" width="120" height="80" as="geometry" />
        </mxCell>
        <mxCell id="l7NquEVj2FEaSE6BUuNS-2" value="Catalog Web API" style="rounded=1;whiteSpace=wrap;html=1;" parent="1" vertex="1">
          <mxGeometry x="640" y="400" width="120" height="80" as="geometry" />
        </mxCell>
        <mxCell id="l7NquEVj2FEaSE6BUuNS-3" value="Catalog&lt;br&gt;database" style="shape=cylinder3;whiteSpace=wrap;html=1;boundedLbl=1;backgroundOutline=1;size=15;" parent="1" vertex="1">
          <mxGeometry x="800" y="400" width="120" height="80" as="geometry" />
        </mxCell>
        <mxCell id="l7NquEVj2FEaSE6BUuNS-4" value="People&lt;br&gt;database" style="shape=cylinder3;whiteSpace=wrap;html=1;boundedLbl=1;backgroundOutline=1;size=15;" parent="1" vertex="1">
          <mxGeometry x="800" y="280" width="120" height="80" as="geometry" />
        </mxCell>
        <mxCell id="l7NquEVj2FEaSE6BUuNS-5" value="" style="endArrow=classic;startArrow=classic;html=1;rounded=0;exitX=1;exitY=0.5;exitDx=0;exitDy=0;entryX=0;entryY=0.5;entryDx=0;entryDy=0;entryPerimeter=0;" parent="1" source="l7NquEVj2FEaSE6BUuNS-1" target="l7NquEVj2FEaSE6BUuNS-4" edge="1">
          <mxGeometry width="50" height="50" relative="1" as="geometry">
            <mxPoint x="560" y="700" as="sourcePoint" />
            <mxPoint x="610" y="650" as="targetPoint" />
          </mxGeometry>
        </mxCell>
        <mxCell id="l7NquEVj2FEaSE6BUuNS-6" value="" style="endArrow=classic;startArrow=classic;html=1;rounded=0;exitX=1;exitY=0.5;exitDx=0;exitDy=0;entryX=0;entryY=0.5;entryDx=0;entryDy=0;entryPerimeter=0;" parent="1" source="l7NquEVj2FEaSE6BUuNS-2" target="l7NquEVj2FEaSE6BUuNS-3" edge="1">
          <mxGeometry width="50" height="50" relative="1" as="geometry">
            <mxPoint x="740" y="690" as="sourcePoint" />
            <mxPoint x="790" y="640" as="targetPoint" />
          </mxGeometry>
        </mxCell>
        <mxCell id="l7NquEVj2FEaSE6BUuNS-12" value="" style="rounded=1;whiteSpace=wrap;html=1;" parent="1" vertex="1">
          <mxGeometry x="640" y="520" width="120" height="80" as="geometry" />
        </mxCell>
        <mxCell id="l7NquEVj2FEaSE6BUuNS-13" value="" style="shape=cylinder3;whiteSpace=wrap;html=1;boundedLbl=1;backgroundOutline=1;size=15;" parent="1" vertex="1">
          <mxGeometry x="800" y="520" width="120" height="80" as="geometry" />
        </mxCell>
        <mxCell id="l7NquEVj2FEaSE6BUuNS-14" value="" style="endArrow=classic;startArrow=classic;html=1;rounded=0;exitX=1;exitY=0.5;exitDx=0;exitDy=0;entryX=0;entryY=0.5;entryDx=0;entryDy=0;entryPerimeter=0;" parent="1" source="l7NquEVj2FEaSE6BUuNS-12" target="l7NquEVj2FEaSE6BUuNS-13" edge="1">
          <mxGeometry width="50" height="50" relative="1" as="geometry">
            <mxPoint x="560" y="540" as="sourcePoint" />
            <mxPoint x="610" y="490" as="targetPoint" />
          </mxGeometry>
        </mxCell>
        <mxCell id="l7NquEVj2FEaSE6BUuNS-15" value="" style="rounded=1;whiteSpace=wrap;html=1;" parent="1" vertex="1">
          <mxGeometry x="650" y="530" width="120" height="80" as="geometry" />
        </mxCell>
        <mxCell id="l7NquEVj2FEaSE6BUuNS-16" value="" style="shape=cylinder3;whiteSpace=wrap;html=1;boundedLbl=1;backgroundOutline=1;size=15;" parent="1" vertex="1">
          <mxGeometry x="810" y="530" width="120" height="80" as="geometry" />
        </mxCell>
        <mxCell id="l7NquEVj2FEaSE6BUuNS-17" value="" style="endArrow=classic;startArrow=classic;html=1;rounded=0;exitX=1;exitY=0.5;exitDx=0;exitDy=0;entryX=0;entryY=0.5;entryDx=0;entryDy=0;entryPerimeter=0;" parent="1" source="l7NquEVj2FEaSE6BUuNS-15" target="l7NquEVj2FEaSE6BUuNS-16" edge="1">
          <mxGeometry width="50" height="50" relative="1" as="geometry">
            <mxPoint x="570" y="550" as="sourcePoint" />
            <mxPoint x="620" y="500" as="targetPoint" />
          </mxGeometry>
        </mxCell>
        <mxCell id="l7NquEVj2FEaSE6BUuNS-18" value="" style="rounded=1;whiteSpace=wrap;html=1;" parent="1" vertex="1">
          <mxGeometry x="660" y="540" width="120" height="80" as="geometry" />
        </mxCell>
        <mxCell id="l7NquEVj2FEaSE6BUuNS-19" value="" style="shape=cylinder3;whiteSpace=wrap;html=1;boundedLbl=1;backgroundOutline=1;size=15;" parent="1" vertex="1">
          <mxGeometry x="820" y="540" width="120" height="80" as="geometry" />
        </mxCell>
        <mxCell id="l7NquEVj2FEaSE6BUuNS-20" value="" style="endArrow=classic;startArrow=classic;html=1;rounded=0;exitX=1;exitY=0.5;exitDx=0;exitDy=0;entryX=0;entryY=0.5;entryDx=0;entryDy=0;entryPerimeter=0;" parent="1" source="l7NquEVj2FEaSE6BUuNS-18" target="l7NquEVj2FEaSE6BUuNS-19" edge="1">
          <mxGeometry width="50" height="50" relative="1" as="geometry">
            <mxPoint x="580" y="560" as="sourcePoint" />
            <mxPoint x="630" y="510" as="targetPoint" />
          </mxGeometry>
        </mxCell>
        <mxCell id="l7NquEVj2FEaSE6BUuNS-21" value="Auth Web API" style="rounded=1;whiteSpace=wrap;html=1;" parent="1" vertex="1">
          <mxGeometry x="640" y="160" width="120" height="80" as="geometry" />
        </mxCell>
        <mxCell id="l7NquEVj2FEaSE6BUuNS-22" value="Identity&lt;br&gt;database" style="shape=cylinder3;whiteSpace=wrap;html=1;boundedLbl=1;backgroundOutline=1;size=15;" parent="1" vertex="1">
          <mxGeometry x="800" y="160" width="120" height="80" as="geometry" />
        </mxCell>
        <mxCell id="l7NquEVj2FEaSE6BUuNS-23" value="" style="endArrow=classic;startArrow=classic;html=1;rounded=0;exitX=1;exitY=0.5;exitDx=0;exitDy=0;entryX=0;entryY=0.5;entryDx=0;entryDy=0;entryPerimeter=0;" parent="1" source="l7NquEVj2FEaSE6BUuNS-21" target="l7NquEVj2FEaSE6BUuNS-22" edge="1">
          <mxGeometry width="50" height="50" relative="1" as="geometry">
            <mxPoint x="560" y="580" as="sourcePoint" />
            <mxPoint x="610" y="530" as="targetPoint" />
          </mxGeometry>
        </mxCell>
        <mxCell id="l7NquEVj2FEaSE6BUuNS-24" value="" style="shape=actor;whiteSpace=wrap;html=1;" parent="1" vertex="1">
          <mxGeometry x="40" y="240" width="40" height="80" as="geometry" />
        </mxCell>
        <mxCell id="l7NquEVj2FEaSE6BUuNS-25" value="Web Frontend" style="rounded=0;whiteSpace=wrap;html=1;verticalAlign=top;" parent="1" vertex="1">
          <mxGeometry x="120" y="160" width="240" height="280" as="geometry" />
        </mxCell>
        <mxCell id="l7NquEVj2FEaSE6BUuNS-26" value="{&lt;br&gt;&quot;id&quot;: 1,&lt;br&gt;&quot;name&quot;: &quot;User 1&quot;&lt;br&gt;}" style="rounded=0;whiteSpace=wrap;html=1;verticalAlign=top;" parent="1" vertex="1">
          <mxGeometry x="440" y="160" width="120" height="80" as="geometry" />
        </mxCell>
        <mxCell id="l7NquEVj2FEaSE6BUuNS-27" value="{&lt;br&gt;&quot;ID&quot;: 1,&lt;br&gt;&quot;Name&quot;: &quot;User 1&quot;&lt;br&gt;}" style="rounded=0;whiteSpace=wrap;html=1;verticalAlign=top;" parent="1" vertex="1">
          <mxGeometry x="440" y="280" width="120" height="80" as="geometry" />
        </mxCell>
        <mxCell id="l7NquEVj2FEaSE6BUuNS-28" value="{&lt;br&gt;&quot;respnse&quot;: {&lt;br&gt;&quot;data&quot;: {&lt;br&gt;&quot;result&quot;: {&lt;br&gt;}}}}" style="rounded=0;whiteSpace=wrap;html=1;verticalAlign=middle;" parent="1" vertex="1">
          <mxGeometry x="440" y="400" width="120" height="80" as="geometry" />
        </mxCell>
        <mxCell id="l7NquEVj2FEaSE6BUuNS-29" value="XML&lt;br&gt;GRPC&lt;br&gt;SOAP" style="rounded=0;whiteSpace=wrap;html=1;verticalAlign=middle;" parent="1" vertex="1">
          <mxGeometry x="440" y="520" width="120" height="80" as="geometry" />
        </mxCell>
        <mxCell id="l7NquEVj2FEaSE6BUuNS-30" value="Auth client&lt;br&gt;request/response transformations" style="rounded=0;whiteSpace=wrap;html=1;" parent="1" vertex="1">
          <mxGeometry x="180" y="190" width="120" height="80" as="geometry" />
        </mxCell>
        <mxCell id="l7NquEVj2FEaSE6BUuNS-32" value="People client&lt;br&gt;request/response transformations" style="rounded=0;whiteSpace=wrap;html=1;" parent="1" vertex="1">
          <mxGeometry x="190" y="260" width="120" height="80" as="geometry" />
        </mxCell>
        <mxCell id="l7NquEVj2FEaSE6BUuNS-33" value="Catalog client&lt;br&gt;request/response transformations" style="rounded=0;whiteSpace=wrap;html=1;" parent="1" vertex="1">
          <mxGeometry x="200" y="330" width="120" height="80" as="geometry" />
        </mxCell>
        <mxCell id="l7NquEVj2FEaSE6BUuNS-43" value="" style="endArrow=classic;startArrow=classic;html=1;rounded=0;exitX=1;exitY=0.5;exitDx=0;exitDy=0;entryX=0;entryY=0.5;entryDx=0;entryDy=0;" parent="1" source="l7NquEVj2FEaSE6BUuNS-30" target="l7NquEVj2FEaSE6BUuNS-26" edge="1">
          <mxGeometry width="50" height="50" relative="1" as="geometry">
            <mxPoint x="560" y="500" as="sourcePoint" />
            <mxPoint x="610" y="450" as="targetPoint" />
          </mxGeometry>
        </mxCell>
        <mxCell id="l7NquEVj2FEaSE6BUuNS-44" value="" style="endArrow=classic;startArrow=classic;html=1;rounded=0;exitX=1;exitY=0.5;exitDx=0;exitDy=0;entryX=0;entryY=0.5;entryDx=0;entryDy=0;" parent="1" source="l7NquEVj2FEaSE6BUuNS-32" target="l7NquEVj2FEaSE6BUuNS-27" edge="1">
          <mxGeometry width="50" height="50" relative="1" as="geometry">
            <mxPoint x="360" y="570" as="sourcePoint" />
            <mxPoint x="410" y="520" as="targetPoint" />
          </mxGeometry>
        </mxCell>
        <mxCell id="l7NquEVj2FEaSE6BUuNS-45" value="" style="endArrow=classic;startArrow=classic;html=1;rounded=0;exitX=1;exitY=0.5;exitDx=0;exitDy=0;entryX=0;entryY=0.5;entryDx=0;entryDy=0;" parent="1" source="l7NquEVj2FEaSE6BUuNS-33" target="l7NquEVj2FEaSE6BUuNS-28" edge="1">
          <mxGeometry width="50" height="50" relative="1" as="geometry">
            <mxPoint x="290" y="560" as="sourcePoint" />
            <mxPoint x="340" y="510" as="targetPoint" />
          </mxGeometry>
        </mxCell>
        <mxCell id="l7NquEVj2FEaSE6BUuNS-46" value="" style="endArrow=classic;startArrow=classic;html=1;rounded=0;exitX=1;exitY=0.5;exitDx=0;exitDy=0;entryX=0;entryY=0.5;entryDx=0;entryDy=0;" parent="1" source="l7NquEVj2FEaSE6BUuNS-26" target="l7NquEVj2FEaSE6BUuNS-21" edge="1">
          <mxGeometry width="50" height="50" relative="1" as="geometry">
            <mxPoint x="560" y="500" as="sourcePoint" />
            <mxPoint x="610" y="450" as="targetPoint" />
          </mxGeometry>
        </mxCell>
        <mxCell id="l7NquEVj2FEaSE6BUuNS-47" value="" style="endArrow=classic;startArrow=classic;html=1;rounded=0;exitX=1;exitY=0.5;exitDx=0;exitDy=0;entryX=0;entryY=0.5;entryDx=0;entryDy=0;" parent="1" source="l7NquEVj2FEaSE6BUuNS-27" target="l7NquEVj2FEaSE6BUuNS-1" edge="1">
          <mxGeometry width="50" height="50" relative="1" as="geometry">
            <mxPoint x="580" y="420" as="sourcePoint" />
            <mxPoint x="630" y="370" as="targetPoint" />
          </mxGeometry>
        </mxCell>
        <mxCell id="l7NquEVj2FEaSE6BUuNS-48" value="" style="endArrow=classic;startArrow=classic;html=1;rounded=0;exitX=1;exitY=0.5;exitDx=0;exitDy=0;entryX=0;entryY=0.5;entryDx=0;entryDy=0;" parent="1" source="l7NquEVj2FEaSE6BUuNS-28" target="l7NquEVj2FEaSE6BUuNS-2" edge="1">
          <mxGeometry width="50" height="50" relative="1" as="geometry">
            <mxPoint x="600" y="550" as="sourcePoint" />
            <mxPoint x="650" y="500" as="targetPoint" />
          </mxGeometry>
        </mxCell>
        <mxCell id="ZZUsBeUG0xjZbX52qY4h-1" value="Cors&#xa;config" style="rhombus;" parent="1" vertex="1">
          <mxGeometry x="620" y="150" width="70" height="50" as="geometry" />
        </mxCell>
        <mxCell id="ZZUsBeUG0xjZbX52qY4h-2" value="Cors&#xa;config" style="rhombus;" parent="1" vertex="1">
          <mxGeometry x="620" y="260" width="70" height="50" as="geometry" />
        </mxCell>
        <mxCell id="ZZUsBeUG0xjZbX52qY4h-3" value="Cors&#xa;config" style="rhombus;" parent="1" vertex="1">
          <mxGeometry x="620" y="380" width="70" height="50" as="geometry" />
        </mxCell>
        <mxCell id="ZFkJgu4S1fMlIEfAWEj2-1" value="&lt;h1&gt;Multi-APIs&lt;/h1&gt;&lt;p&gt;One frontend&lt;/p&gt;&lt;p&gt;Several Web API client with different response style&lt;/p&gt;&lt;p&gt;Each http client has own transformation rules&lt;br&gt;&lt;/p&gt;&lt;p&gt;Several Web APIs with own&amp;nbsp;&lt;span style=&quot;background-color: initial;&quot;&gt;CORS config&lt;/span&gt;&lt;/p&gt;&lt;p&gt;&lt;br&gt;&lt;/p&gt;" style="text;html=1;strokeColor=none;fillColor=none;spacing=5;spacingTop=-20;whiteSpace=wrap;overflow=hidden;rounded=0;" parent="1" vertex="1">
          <mxGeometry x="40" y="520" width="350" height="200" as="geometry" />
        </mxCell>
        <mxCell id="w0G78uZdmgTcvzXc6Lyy-1" value="" style="endArrow=classic;startArrow=classic;html=1;rounded=0;exitX=1;exitY=0.5;exitDx=0;exitDy=0;entryX=0;entryY=0.5;entryDx=0;entryDy=0;" parent="1" source="l7NquEVj2FEaSE6BUuNS-29" target="l7NquEVj2FEaSE6BUuNS-12" edge="1">
          <mxGeometry width="50" height="50" relative="1" as="geometry">
            <mxPoint x="570" y="450" as="sourcePoint" />
            <mxPoint x="650" y="450" as="targetPoint" />
          </mxGeometry>
        </mxCell>
      </root>
    </mxGraphModel>
  </diagram>
  <diagram name="3 - Multyclients" id="Zmln4XiyENZex0bWLGng">
    <mxGraphModel dx="1434" dy="854" grid="1" gridSize="10" guides="1" tooltips="1" connect="1" arrows="1" fold="1" page="1" pageScale="1" pageWidth="1169" pageHeight="827" math="0" shadow="0">
      <root>
        <mxCell id="aYajJrX3XXZS-vCC2zLg-0" />
        <mxCell id="aYajJrX3XXZS-vCC2zLg-1" parent="aYajJrX3XXZS-vCC2zLg-0" />
        <mxCell id="aYajJrX3XXZS-vCC2zLg-2" value="People Web API" style="rounded=1;whiteSpace=wrap;html=1;" parent="aYajJrX3XXZS-vCC2zLg-1" vertex="1">
          <mxGeometry x="640" y="280" width="120" height="80" as="geometry" />
        </mxCell>
        <mxCell id="aYajJrX3XXZS-vCC2zLg-3" value="Catalog Web API" style="rounded=1;whiteSpace=wrap;html=1;" parent="aYajJrX3XXZS-vCC2zLg-1" vertex="1">
          <mxGeometry x="640" y="400" width="120" height="80" as="geometry" />
        </mxCell>
        <mxCell id="aYajJrX3XXZS-vCC2zLg-4" value="Catalog&lt;br&gt;database" style="shape=cylinder3;whiteSpace=wrap;html=1;boundedLbl=1;backgroundOutline=1;size=15;" parent="aYajJrX3XXZS-vCC2zLg-1" vertex="1">
          <mxGeometry x="800" y="400" width="120" height="80" as="geometry" />
        </mxCell>
        <mxCell id="aYajJrX3XXZS-vCC2zLg-5" value="People&lt;br&gt;database" style="shape=cylinder3;whiteSpace=wrap;html=1;boundedLbl=1;backgroundOutline=1;size=15;" parent="aYajJrX3XXZS-vCC2zLg-1" vertex="1">
          <mxGeometry x="800" y="280" width="120" height="80" as="geometry" />
        </mxCell>
        <mxCell id="aYajJrX3XXZS-vCC2zLg-6" value="" style="endArrow=classic;startArrow=classic;html=1;rounded=0;exitX=1;exitY=0.5;exitDx=0;exitDy=0;entryX=0;entryY=0.5;entryDx=0;entryDy=0;entryPerimeter=0;" parent="aYajJrX3XXZS-vCC2zLg-1" source="aYajJrX3XXZS-vCC2zLg-2" target="aYajJrX3XXZS-vCC2zLg-5" edge="1">
          <mxGeometry width="50" height="50" relative="1" as="geometry">
            <mxPoint x="560" y="700" as="sourcePoint" />
            <mxPoint x="610" y="650" as="targetPoint" />
          </mxGeometry>
        </mxCell>
        <mxCell id="aYajJrX3XXZS-vCC2zLg-7" value="" style="endArrow=classic;startArrow=classic;html=1;rounded=0;exitX=1;exitY=0.5;exitDx=0;exitDy=0;entryX=0;entryY=0.5;entryDx=0;entryDy=0;entryPerimeter=0;" parent="aYajJrX3XXZS-vCC2zLg-1" source="aYajJrX3XXZS-vCC2zLg-3" target="aYajJrX3XXZS-vCC2zLg-4" edge="1">
          <mxGeometry width="50" height="50" relative="1" as="geometry">
            <mxPoint x="740" y="690" as="sourcePoint" />
            <mxPoint x="790" y="640" as="targetPoint" />
          </mxGeometry>
        </mxCell>
        <mxCell id="aYajJrX3XXZS-vCC2zLg-8" value="" style="rounded=1;whiteSpace=wrap;html=1;" parent="aYajJrX3XXZS-vCC2zLg-1" vertex="1">
          <mxGeometry x="640" y="520" width="120" height="80" as="geometry" />
        </mxCell>
        <mxCell id="aYajJrX3XXZS-vCC2zLg-9" value="" style="shape=cylinder3;whiteSpace=wrap;html=1;boundedLbl=1;backgroundOutline=1;size=15;" parent="aYajJrX3XXZS-vCC2zLg-1" vertex="1">
          <mxGeometry x="800" y="520" width="120" height="80" as="geometry" />
        </mxCell>
        <mxCell id="aYajJrX3XXZS-vCC2zLg-10" value="" style="endArrow=classic;startArrow=classic;html=1;rounded=0;exitX=1;exitY=0.5;exitDx=0;exitDy=0;entryX=0;entryY=0.5;entryDx=0;entryDy=0;entryPerimeter=0;" parent="aYajJrX3XXZS-vCC2zLg-1" source="aYajJrX3XXZS-vCC2zLg-8" target="aYajJrX3XXZS-vCC2zLg-9" edge="1">
          <mxGeometry width="50" height="50" relative="1" as="geometry">
            <mxPoint x="560" y="540" as="sourcePoint" />
            <mxPoint x="610" y="490" as="targetPoint" />
          </mxGeometry>
        </mxCell>
        <mxCell id="aYajJrX3XXZS-vCC2zLg-11" value="" style="rounded=1;whiteSpace=wrap;html=1;" parent="aYajJrX3XXZS-vCC2zLg-1" vertex="1">
          <mxGeometry x="650" y="530" width="120" height="80" as="geometry" />
        </mxCell>
        <mxCell id="aYajJrX3XXZS-vCC2zLg-12" value="" style="shape=cylinder3;whiteSpace=wrap;html=1;boundedLbl=1;backgroundOutline=1;size=15;" parent="aYajJrX3XXZS-vCC2zLg-1" vertex="1">
          <mxGeometry x="810" y="530" width="120" height="80" as="geometry" />
        </mxCell>
        <mxCell id="aYajJrX3XXZS-vCC2zLg-13" value="" style="endArrow=classic;startArrow=classic;html=1;rounded=0;exitX=1;exitY=0.5;exitDx=0;exitDy=0;entryX=0;entryY=0.5;entryDx=0;entryDy=0;entryPerimeter=0;" parent="aYajJrX3XXZS-vCC2zLg-1" source="aYajJrX3XXZS-vCC2zLg-11" target="aYajJrX3XXZS-vCC2zLg-12" edge="1">
          <mxGeometry width="50" height="50" relative="1" as="geometry">
            <mxPoint x="570" y="550" as="sourcePoint" />
            <mxPoint x="620" y="500" as="targetPoint" />
          </mxGeometry>
        </mxCell>
        <mxCell id="aYajJrX3XXZS-vCC2zLg-14" value="" style="rounded=1;whiteSpace=wrap;html=1;" parent="aYajJrX3XXZS-vCC2zLg-1" vertex="1">
          <mxGeometry x="660" y="540" width="120" height="80" as="geometry" />
        </mxCell>
        <mxCell id="aYajJrX3XXZS-vCC2zLg-15" value="" style="shape=cylinder3;whiteSpace=wrap;html=1;boundedLbl=1;backgroundOutline=1;size=15;" parent="aYajJrX3XXZS-vCC2zLg-1" vertex="1">
          <mxGeometry x="820" y="540" width="120" height="80" as="geometry" />
        </mxCell>
        <mxCell id="aYajJrX3XXZS-vCC2zLg-16" value="" style="endArrow=classic;startArrow=classic;html=1;rounded=0;exitX=1;exitY=0.5;exitDx=0;exitDy=0;entryX=0;entryY=0.5;entryDx=0;entryDy=0;entryPerimeter=0;" parent="aYajJrX3XXZS-vCC2zLg-1" source="aYajJrX3XXZS-vCC2zLg-14" target="aYajJrX3XXZS-vCC2zLg-15" edge="1">
          <mxGeometry width="50" height="50" relative="1" as="geometry">
            <mxPoint x="580" y="560" as="sourcePoint" />
            <mxPoint x="630" y="510" as="targetPoint" />
          </mxGeometry>
        </mxCell>
        <mxCell id="aYajJrX3XXZS-vCC2zLg-17" value="Auth Web API" style="rounded=1;whiteSpace=wrap;html=1;" parent="aYajJrX3XXZS-vCC2zLg-1" vertex="1">
          <mxGeometry x="640" y="160" width="120" height="80" as="geometry" />
        </mxCell>
        <mxCell id="aYajJrX3XXZS-vCC2zLg-18" value="Identity&lt;br&gt;database" style="shape=cylinder3;whiteSpace=wrap;html=1;boundedLbl=1;backgroundOutline=1;size=15;" parent="aYajJrX3XXZS-vCC2zLg-1" vertex="1">
          <mxGeometry x="800" y="160" width="120" height="80" as="geometry" />
        </mxCell>
        <mxCell id="aYajJrX3XXZS-vCC2zLg-19" value="" style="endArrow=classic;startArrow=classic;html=1;rounded=0;exitX=1;exitY=0.5;exitDx=0;exitDy=0;entryX=0;entryY=0.5;entryDx=0;entryDy=0;entryPerimeter=0;" parent="aYajJrX3XXZS-vCC2zLg-1" source="aYajJrX3XXZS-vCC2zLg-17" target="aYajJrX3XXZS-vCC2zLg-18" edge="1">
          <mxGeometry width="50" height="50" relative="1" as="geometry">
            <mxPoint x="560" y="580" as="sourcePoint" />
            <mxPoint x="610" y="530" as="targetPoint" />
          </mxGeometry>
        </mxCell>
        <mxCell id="aYajJrX3XXZS-vCC2zLg-20" value="" style="shape=actor;whiteSpace=wrap;html=1;" parent="aYajJrX3XXZS-vCC2zLg-1" vertex="1">
          <mxGeometry x="40" y="400" width="40" height="80" as="geometry" />
        </mxCell>
        <mxCell id="aYajJrX3XXZS-vCC2zLg-21" value="Web Frontend" style="rounded=0;whiteSpace=wrap;html=1;verticalAlign=top;" parent="aYajJrX3XXZS-vCC2zLg-1" vertex="1">
          <mxGeometry x="120" y="160" width="240" height="280" as="geometry" />
        </mxCell>
        <mxCell id="aYajJrX3XXZS-vCC2zLg-22" value="{&lt;br&gt;&quot;id&quot;: 1,&lt;br&gt;&quot;name&quot;: &quot;User 1&quot;&lt;br&gt;}" style="rounded=0;whiteSpace=wrap;html=1;verticalAlign=top;" parent="aYajJrX3XXZS-vCC2zLg-1" vertex="1">
          <mxGeometry x="440" y="160" width="120" height="80" as="geometry" />
        </mxCell>
        <mxCell id="aYajJrX3XXZS-vCC2zLg-23" value="{&lt;br&gt;&quot;ID&quot;: 1,&lt;br&gt;&quot;Name&quot;: &quot;User 1&quot;&lt;br&gt;}" style="rounded=0;whiteSpace=wrap;html=1;verticalAlign=top;" parent="aYajJrX3XXZS-vCC2zLg-1" vertex="1">
          <mxGeometry x="440" y="280" width="120" height="80" as="geometry" />
        </mxCell>
        <mxCell id="aYajJrX3XXZS-vCC2zLg-24" value="{&lt;br&gt;&quot;respnse&quot;: {&lt;br&gt;&quot;data&quot;: {&lt;br&gt;&quot;result&quot;: {&lt;br&gt;}}}}" style="rounded=0;whiteSpace=wrap;html=1;verticalAlign=middle;" parent="aYajJrX3XXZS-vCC2zLg-1" vertex="1">
          <mxGeometry x="440" y="400" width="120" height="80" as="geometry" />
        </mxCell>
        <mxCell id="aYajJrX3XXZS-vCC2zLg-25" value="XML&lt;br&gt;GRPC&lt;br&gt;SOAP" style="rounded=0;whiteSpace=wrap;html=1;verticalAlign=middle;" parent="aYajJrX3XXZS-vCC2zLg-1" vertex="1">
          <mxGeometry x="440" y="520" width="120" height="80" as="geometry" />
        </mxCell>
        <mxCell id="aYajJrX3XXZS-vCC2zLg-26" value="Auth client&lt;br&gt;request/response transformations" style="rounded=0;whiteSpace=wrap;html=1;" parent="aYajJrX3XXZS-vCC2zLg-1" vertex="1">
          <mxGeometry x="180" y="190" width="120" height="80" as="geometry" />
        </mxCell>
        <mxCell id="aYajJrX3XXZS-vCC2zLg-27" value="People client&lt;br&gt;request/response transformations" style="rounded=0;whiteSpace=wrap;html=1;" parent="aYajJrX3XXZS-vCC2zLg-1" vertex="1">
          <mxGeometry x="190" y="260" width="120" height="80" as="geometry" />
        </mxCell>
        <mxCell id="aYajJrX3XXZS-vCC2zLg-28" value="Catalog client&lt;br&gt;request/response transformations" style="rounded=0;whiteSpace=wrap;html=1;" parent="aYajJrX3XXZS-vCC2zLg-1" vertex="1">
          <mxGeometry x="200" y="330" width="120" height="80" as="geometry" />
        </mxCell>
        <mxCell id="aYajJrX3XXZS-vCC2zLg-29" value="" style="verticalLabelPosition=bottom;verticalAlign=top;html=1;shadow=0;dashed=0;strokeWidth=1;shape=mxgraph.android.phone2;strokeColor=#c0c0c0;" parent="aYajJrX3XXZS-vCC2zLg-1" vertex="1">
          <mxGeometry x="120" y="480" width="120" height="240" as="geometry" />
        </mxCell>
        <mxCell id="aYajJrX3XXZS-vCC2zLg-30" value="Auth client&lt;br&gt;transformations" style="rounded=0;whiteSpace=wrap;html=1;" parent="aYajJrX3XXZS-vCC2zLg-1" vertex="1">
          <mxGeometry x="130" y="530" width="100" height="40" as="geometry" />
        </mxCell>
        <mxCell id="aYajJrX3XXZS-vCC2zLg-31" value="People client&lt;br&gt;transformations" style="rounded=0;whiteSpace=wrap;html=1;" parent="aYajJrX3XXZS-vCC2zLg-1" vertex="1">
          <mxGeometry x="130" y="580" width="100" height="40" as="geometry" />
        </mxCell>
        <mxCell id="aYajJrX3XXZS-vCC2zLg-32" value="Catalog client&lt;br&gt;transformations" style="rounded=0;whiteSpace=wrap;html=1;" parent="aYajJrX3XXZS-vCC2zLg-1" vertex="1">
          <mxGeometry x="130" y="630" width="100" height="40" as="geometry" />
        </mxCell>
        <mxCell id="aYajJrX3XXZS-vCC2zLg-35" value="" style="endArrow=classic;startArrow=classic;html=1;rounded=0;exitX=1;exitY=0.5;exitDx=0;exitDy=0;entryX=0;entryY=0.5;entryDx=0;entryDy=0;" parent="aYajJrX3XXZS-vCC2zLg-1" source="aYajJrX3XXZS-vCC2zLg-26" target="aYajJrX3XXZS-vCC2zLg-22" edge="1">
          <mxGeometry width="50" height="50" relative="1" as="geometry">
            <mxPoint x="560" y="500" as="sourcePoint" />
            <mxPoint x="610" y="450" as="targetPoint" />
          </mxGeometry>
        </mxCell>
        <mxCell id="aYajJrX3XXZS-vCC2zLg-36" value="" style="endArrow=classic;startArrow=classic;html=1;rounded=0;exitX=1;exitY=0.5;exitDx=0;exitDy=0;entryX=0;entryY=0.5;entryDx=0;entryDy=0;" parent="aYajJrX3XXZS-vCC2zLg-1" source="aYajJrX3XXZS-vCC2zLg-27" target="aYajJrX3XXZS-vCC2zLg-23" edge="1">
          <mxGeometry width="50" height="50" relative="1" as="geometry">
            <mxPoint x="360" y="570" as="sourcePoint" />
            <mxPoint x="410" y="520" as="targetPoint" />
          </mxGeometry>
        </mxCell>
        <mxCell id="aYajJrX3XXZS-vCC2zLg-37" value="" style="endArrow=classic;startArrow=classic;html=1;rounded=0;exitX=1;exitY=0.5;exitDx=0;exitDy=0;entryX=0;entryY=0.5;entryDx=0;entryDy=0;" parent="aYajJrX3XXZS-vCC2zLg-1" source="aYajJrX3XXZS-vCC2zLg-28" target="aYajJrX3XXZS-vCC2zLg-24" edge="1">
          <mxGeometry width="50" height="50" relative="1" as="geometry">
            <mxPoint x="290" y="560" as="sourcePoint" />
            <mxPoint x="340" y="510" as="targetPoint" />
          </mxGeometry>
        </mxCell>
        <mxCell id="aYajJrX3XXZS-vCC2zLg-38" value="" style="endArrow=classic;startArrow=classic;html=1;rounded=0;exitX=1;exitY=0.5;exitDx=0;exitDy=0;entryX=0;entryY=0.5;entryDx=0;entryDy=0;" parent="aYajJrX3XXZS-vCC2zLg-1" source="aYajJrX3XXZS-vCC2zLg-22" target="aYajJrX3XXZS-vCC2zLg-17" edge="1">
          <mxGeometry width="50" height="50" relative="1" as="geometry">
            <mxPoint x="560" y="500" as="sourcePoint" />
            <mxPoint x="610" y="450" as="targetPoint" />
          </mxGeometry>
        </mxCell>
        <mxCell id="aYajJrX3XXZS-vCC2zLg-39" value="" style="endArrow=classic;startArrow=classic;html=1;rounded=0;exitX=1;exitY=0.5;exitDx=0;exitDy=0;entryX=0;entryY=0.5;entryDx=0;entryDy=0;" parent="aYajJrX3XXZS-vCC2zLg-1" source="aYajJrX3XXZS-vCC2zLg-23" target="aYajJrX3XXZS-vCC2zLg-2" edge="1">
          <mxGeometry width="50" height="50" relative="1" as="geometry">
            <mxPoint x="580" y="420" as="sourcePoint" />
            <mxPoint x="630" y="370" as="targetPoint" />
          </mxGeometry>
        </mxCell>
        <mxCell id="aYajJrX3XXZS-vCC2zLg-40" value="" style="endArrow=classic;startArrow=classic;html=1;rounded=0;exitX=1;exitY=0.5;exitDx=0;exitDy=0;entryX=0;entryY=0.5;entryDx=0;entryDy=0;" parent="aYajJrX3XXZS-vCC2zLg-1" source="aYajJrX3XXZS-vCC2zLg-24" target="aYajJrX3XXZS-vCC2zLg-3" edge="1">
          <mxGeometry width="50" height="50" relative="1" as="geometry">
            <mxPoint x="600" y="550" as="sourcePoint" />
            <mxPoint x="650" y="500" as="targetPoint" />
          </mxGeometry>
        </mxCell>
        <mxCell id="aYajJrX3XXZS-vCC2zLg-41" value="Logic" style="rounded=0;whiteSpace=wrap;html=1;verticalAlign=top;" parent="aYajJrX3XXZS-vCC2zLg-1" vertex="1">
          <mxGeometry x="242.88" y="530" width="117.12" height="150" as="geometry" />
        </mxCell>
        <mxCell id="aYajJrX3XXZS-vCC2zLg-42" value="" style="shape=image;verticalLabelPosition=bottom;labelBackgroundColor=default;verticalAlign=top;aspect=fixed;imageAspect=0;image=data:image/png,iVBORw0KGgoAAAANSUhEUgAAAIAAAACLCAYAAACp+ZEIAAAgAElEQVR4Ae29dXRV1xY+ev94Y/zeb1wtEvcQIRC8SHGLe0ISQkhwdyjFoRRp8ZbibWmBFihOkeJWrLi7e4AQOW7fu99c50CA9LaXl9qFzTjsc07O3nvJXFO/Oddf8OZ4rUfgL6917990Hm8I4DUngjcE8IYAXvMReM27/4YDvCGA13wEXvPuv+EAbwjgNR+B17z7bzjAGwJ4zUfgNe/+Gw7whgBe8xF4zbv/hgO8IYDXfARe8+6/4QBvCOA1H4HXvPtvOMAbAvjfHQGbzQa+ePD00ovfO/7ZrOqdzaq+tV8rl9svVCfe0/r0XuDt7fd+9l79BuDv+L7os1Wbnn2v2vd7zcL/NAdwEIDV6pgwDr7p2QsmmMxmWCxqoqxWi0yYxcLfWGCxGmC1GWG1msB7WMyA2aQm0GrVwWLRQs5WHUzmQhiNubCYtYpALDZYeV+rTV4WixE2m17uSwKS+9mf+3tNPp/7P08AHGg1sZxoI2C1yctGorBwwjmxZtisFlhMFlgtNiEIq9UGs9kGvd6CCxduYeP3ezFjxhIMH/4JBg6cjL59JqNf3yl4d8DHGDF8Dj4cvwALFmzCD3vP4km+EWabDRYSjs0As6UQNhufodrCNpnNZpl3x/n3IoL/GQJwrPbizmq1kQBMsFiNQghmi1lWv8lsgNFogEarhVZrwM2bd7Dh+/344IN5SEocgCqhGXBzioS3ewIC/VsgNCQTVULbolb1Nqjzdju8XTULlSukIzS4BYLLpcDXKxqe7s0R1qwH3u03HauW/4DLl+5CbzTCbDHCZGI7LMIBSJgiP36v2f9f4gDFTTzZOCfXbLJCpzXiwb18XL52H5u3/ohPZyzDkKEz0KnjGCQn9kdURA+ENe8GH68wuJQNh5d7LLw84hAUkI62WeOxZvUe3L2XC61eA6usZrJ2snir3F9TaMDZs1ew7rs9mPTRIiTE9EF5vwR4OkfC1y0WrdIG4Yc9J5CfT25gEwIwm42gnvB7Hn8KDmC1mmXAig4U5anRaFLjZ4UaUIseVpseJrMOVqsRj/M1WPrtVrTOHIl69TvByysc7k7N4OkcgwC/FPj6RsHTLRn+3ulwdW6OihXikJ4+AElxA1G7ehbKl0uCr3ssPJ1iUPbv4ahavgNaxA/G0sVbYLYahI1TzpsMJioHIutJbEaDRVb6k7w8XLlyC5MmfoEqFVrArVQcKldui9lzVsNoMonoAXUFE2CzGmG1aYU7kUB+q+NPQQAWi9mueZN1WoSV63UG+U6vL4DZXAiDyYD8QjM2bz6IXj2mILJ5f3i7xMO1dBjq1e6EtNQRmDhhJb7fsA+LFm5FXGw/+Hi0QEj5WPTt8xG2bTuKgjwqfIDZRkIyQafX4+atOzh+4jQ2fr8Tw4fOQON6neDvnoCKQa3Qsf1o7Np5EGazBSYjidQErmqHkmc0WmA2K7lfWGDEjm2HkZ05Gm5lw9DwnQ5YungTjCY9DKZ8GA1GmE1KJ3lDAMWQP7mAxWKQQbaYFSFQpj64n4ct3x9Fr+5TEVohCS2S30PD+m2R3mI4Ppu1CseOnMeTJ3mwWC04ceIMenb/AD5ukahasRUmTliAq9duyWqVSeP95RmAxWKD0WiWVU5lkBaAxWqGwWjG4UPnMWz4VNSplQ1Pl1gkJb6LPXuOQW8wwWIzw2QhcSorgCxKWQDUAahv5GLfnlNITRgKD+dYpCQOx917+bDQyrAaYTaTHbzhAM+RAFcRJ0hp0jaYDBZcvnwL48fMRfmAaLz11/qoGNQSnTp8iEOHr0JvssBgoRgwQafTIS9XixmfrISXWxME+rTA+LGfw2C0wGCgmWeDiexYLAIbjHrFWRTB0Rwk9+GZLFoPfm8yco5oJZixcMFa1KjaCi6lEtC9x0e4e68AtCCoeEqbrRZYzRYRVSaDDTYzYDKRkI34etFaRIR1g7tbGNav3w2drtBusbwhgOcIgB848BzwfT8cR2JsJwR4JcPLKR4tk0dhz57jyHl4HyaT9ukkieZvNWDf3uOoWzsT7i5h6NRhKq5cvwuTmXY9ZbYZFk4kJ4xuIJqE4gNwEJzy4IgtTwKkTS+EaABZgtViEQUw93Ehpk37DB5uCahRvQU2bdqjfAsWG2wWZXbCagZEtOiEoMhNaJLevv0YjZu0g69XHEYO+Vw4wGslAhwmkeNs5SSI0sfBNcFk0MvnZUs2IyaiH9xdIvFOrQ6YOH4hzp6+BhOVLiNNO5uYWVYoM+vhw1xMmbwEfj5RaNKgKzZuOAirTTl6OMAlMciO+zjOh348i/jId+HrGYdPZ3wLvd4AvU4vvgXqLmaLrhjCtsJotqFfr4nw80pAj+4fwWQkgVJ/eHZ+6cIS+uJ3VwIVq1Qsk6yYphtZrsVsgk5rws6dx9Gofld4ukWiecPu+GLeWhQWaOzKINkyWbZFaeBksbDg1NkzSEoYBh+PBKxYsRv5+QUwmfWirDkmq4TGTwjJcU+y8MePC9Gpw0h4uUdiyLufo7CwEBrdA+VBLMbi47UA/RNmjBvzJbzcY9C/1xRotQVCMBYTRYappJr70n3+EATgkL8cDFI/3fFXLt9CcmJPeLqkoEpoS6xasU80dE62Vdy3nHhlHprEPWuCwVCAPbvOIcg/HUHBLbBz1wEYjFTmjKJtK3n+68hXIQIREQYRKcMGz4KPWwu0bTMcJjOtC3r/DC9NAK0OKpgkZJPZgunTVsK9bDKmTvkahRp1ndWa/9J1JfXF704AlOskAMXGLXiSV4APPpiDIL9kVAhIwafTl+Dx4xwY9AY1UFYbTBaN9N/hw+fgU3R8/PEieLpEIDb6PZy9eBNGk85ullEJs4rMLqmBK+4+lPcmE8WRshaGDZsJL49I9O45GUajXvSLl64jtQsRkEB0Ykl06zYRPt4xmP/5RsUNTcpt/NK1JfDFb0oAKipGPmj3hcti5HsrzBYT9u8/iaS4/nAt0xQ9u03ExfO3ZUDNBipgdJsaYbaSXVJkUAnjxJvFzTpgwKfw9oxDpw7jkJtXAIuFA87f0W9AxUuZkMJBqIDRPKPJBbOIDSp3MhNQtrjDRavarEQLdQiak2w2Xck88y+0JOQ7EpyJyqpV2mWGCSOHz4OPRxw2btynFEJ7n6XtFiqdBnnxBg65b7JZEBPdB6EV0nH2zC3YxDRVYo5PospaUsdvSgCUZewk3bNK4zaL4ma2WPDFvHUI8ItBtSqpWL/6R1hMZN2ctGdeQGGzRcK0BpMehRodWqa/Bz/vOAwYMB1mCx0vRqWhP3XKqIgcJ5PxIJuFbJccwSbOFwkAmQGjgfY+J5RmoT0KaKP/3ijchzRCS8Bh5jlEFz8rQnH4+DmxNpj0Juh1RmRnDUXF8unYtvUAjHr2X2MPDJEaSNjPH2zDzRuPUblSGurXbQ+NRiPiQ+lLJFClzD5/1at9+k0JgJ2lZsvB4sozmPKg1RrRvs0IeDsnI6vV+yjQMmRKjV4ncpEEUHTiHd2k0pSvKUDzxp3hWrY5vpy/HhZOEEzQ019vgYgVDpasdgm9cuAKoDM8ESLhfTlRV6/dxvbt+7Fx4y5s3LgD+/deRN4TEg3AoJ34If69mqms2UA5Tm2eHITsno4b9QxH2xxnYVow4nGuFsH+sagWmo6HDyi+TMoXYKaZ6fh1kbMVMJifYMuWQ3B3isW0qSvFZyHPL2LJFLnild/+pgRACiYH4KTSm3f18h1EhHeGl0syZn+6FoXaAvGGKbat7G4OkJqoZ1TP++Tma5CRNgiupWKxaeOP0BtoGZhgMOrEk8b7M3bPCTJJjJ5uWgsuXnqE8ePno0unj1CjSiacSjWBh0s0fD1awM8jVb08k8UkCw5IRoO6HREX3Q9x0X0RH9MXWa1GYPiQz7B0ySZcvHBPwsUUScrtq3QZRz/NVo1wMpvFipOnTqOcTyraZA+TOAC9mOQmxXFzvc4Ck7kAdHf37DYVPp6xOHf6OowmZf0oblMyYuA3JQBZURaKAS3On72KJnU7oXxgOpYu2wSjmQob5aHDCfOMWEgAiv0p+12v1yOr9Uj4esXgyy/WwmCgrW0SfzoJht485UtQvvl7dx/hmwWb0CJ+EFzLRqCcbxwiwrpjxqffoUuXCWjUqAv8fOLh6R4DN9dI+HrHo0rl1qj3Tic0atQVDRt2Q3BQGtzdYuDhHgcP9wR4uMTD3TUSdeu2Qa9eE7Dx+/24f/+BnVjJtWj3m8WdTOuD4qJ3nwnw9ozF3n2nZREIPsDysggwUs+h69lixvWbd+Hrm4Q+3SeLQkurga/iRMersIFflQC4+jhxZKEcAJORTp5CXLl2HaHB2Qit0BK7du0RmapWOcXD85Qtk2/TgquILlWdyYD0zJHwcIvErFnL5b6iJ4i7mLpFIaz03VtsePSkEPPmbUT5gJZwd45Cw/odZdK3bD2E4cOno2G9bmidPhaVQxJRv046Ro+aie837sfly5eRm5v7lOhMJgvuP8jFV/NXIzayO4J8E+HjHo/yQTEIC+uEGjWyUeqtWFQIbYGPP1mKgnytXcabxZlFzkT95/bNHISGtkL1KhnQaguV78KiEaIpOnmOFU4CoJ46YthkuLrFYP+Bk7BaNDAZKDleNimL3uOXvv9VCYDNdMS8Rfu2FeLmjUcI9k2Fp1tznDxzRTqv1VJL56SpqF/RxgsBWGzQ6XNhtmjRs+cElCkdg7nzvhNrQPz04nfXwURrgRafzYod2w8hsFw8XJzqIiW5Ny5fycWqNbvxTt0UuJSOg49bBlqmDcO+faeh1xuhN1DDpwLIFaYI9pmSZ4bJxNgC5b4Vjx5oMOS92fD1SECgbwbatR+D0xeuIj7qXUQ1exeVQ5KwYvlWsTxEYRNYGKA3FGLhN1vgUjoamzbtlT7L35VS9LTbDgJQfgtyNDMqVEhDRvowgahxTJTd8fSSV37zqxKAmlRHFMyIe/dy0bxxV5T3S8KJExdkwOkHkEmWSVSBmaK94d9MJj1JCVMmLYW3WyLGjv4KBQWFYjoSs2fQGWA1WyWYkl+Qi47th8HHPQGR4b2xZ/dZTJ26BO/UbgO3slGICx+CJYu/x40b14VFE7alonDU+s0C43rx+Zx4aq40Ofk8TozRlIfr1+9g7Adfwc8rGpVDsrHhu724cPE8sjPGw7V0PNq2GYk7dxnp08Ns0YtOkpPzEJVCstG0aUcUarRiibCPzx20VhhrsKpnkZMSdhbo2xLXb+TAbCWHee6KV/7wqxKAWkkmhcoxAu2yxiLALxYbN+yB1UabWZk0DiKgkvbSWMjA67B82R74eiYiLWUwNJpCGSCaZwY95T8VSxtOn7qARnXboJx3GkaNmo/vNuxA86bd4eOehtjoAVi9ZjsKNZwQE4wmhymqFDfHaudksD18ycTT1uf8EysoxEp73CpRPfVcE44du4iO7UYiNDgFndp/iKtXb+CLz5fD3yce4eFdceXqbeXXZxjbbMLMWSvgVDYcO3ceKp4A6PEwcvLVgiAxXDh/A97ucRjQfwZMVp1YOa8860UuLDECeImKOXCCfqVCY8OXX6yHl3sEJk1cKq5S8QkI4laxfQ64OrgaHHY1z1bcu1uA0JA0NGncESY6YshSOSEmBckiIezYdhzlvBIQ7JeM9RsOoV3boXAvm4JaNVphy7b96pniDSR4hwomoNcrBC+fq/wSKhZBYih60CpR6jpNPr6oqLJfRAXxGrWCP5q0AH5eLVC9UgpuXL2PHTvPIzgwGXVqdMGDe7kwm3PFjV2gLURAuUwM6D9J9UXupxRcRYDK9y8LRHwPjAfo0bXLBAT6p+HR44dPn6na/gIHKdr4n3n/qxMAoVsXzt+Bl3cUevYYB4OenjmF6qGi9vJhg9FgUKvOZsPdO48RWjEFISGJuHotV9iv2cgJsDuKbCZ8v/EAAnwTUbtmFj6dvhahIenwdmuGhV9uQGGBDjot4dtWaLXalx9Xgt+QGI4fuYaqVZLg490ca9fuxYnjlwRW1qRBG+Tna2EymGGy6pGeNhTVK6cjL88BFX9GAA6CKto0EtuePSfwz7+GY8euQ8LBnnKoF9lm0Qt/5n2JEUBxz6FMLSzUILxxb4RWSMbtOw+FtXL1CLCymPlnXwxE1lg1KCgwoFO7cfB2j8Wu3UdgolUh7l2ycB0sVi12bDsJX89o1HsnC0nxgwXB2yZzOM6du6G8cSayUsp3AjCLeWBxDX/F74gwNhgLcOt2DuJjB8LfKwFzZ6/EkSPH4OeWjvf6z4SVmr1Vg23bT8OpTANsWHcYtDI46ZxQvoojALPJgJyHBagQ0hIdOgwDvad/WAJgB/gSF+8X6+DpGoetW0+IU8bhYlUWwvOsluNOeavTGWA0a/H5vLXwco/CzE/WgINL7yDZP++hN+px4uRF+HhGw9stCRWDW6GcdzzmzFoGrY4rngOk7icDK+7fV5zZX3gZLR5KC0ozrc6MrIwhCPROxBdfLBNEko97M3y7lDhALZ7k6lCjajq6dJwsfVaTT32EIublB3JczFYzunQdh/JBibh3l9xQEY2M2ytygV+FAzgaVpBvwju1OyIiopv4ANSkKBvdQSQvdlUIx2rA5UsP4EUMQLOOgvI10sQTr6BC3+bnm1GzejaCy6XByyMaVULTcGD/WRjIGcw0G6koqpVFUSP3fapnvPjUkvlMk476CLH/YvZaLWiZ+i68nKNwYP95JMb0Qc3qrVX8wWpCZqshqFWzo13cMYBEx5Xq54stIgyOIePDR6+hzD/DsWf3MeGm/N1PjeWL9yjuc4kRgGqEYktk04RmT/zwK/i4ReDkiVuiNFHRUpNYVN4xY0YFazh4jHRRRjZu0ANVQ1sh93G+wK5tVhVOtYriZ0Cnjh/Byy0Jni4xiI5qj7t3H9qDNI4BUWdFBHwu/fg0J0304tvjBsKHxLRTcQplkhKiLS/i9ul5M9GJZX8Z7EoovyfKS9xyVGApaii6lHWh4N42PM7NQUJcF/h5JWHOZ2vg6d0MUyaths2mxbSpy+HnGw9Z9BRT4gdRY/PiZJFD0HIpLDAgsFwMJk1YImgoK/sjUcVi2MaLNynmc4kRgFLo7Plw4qgwo1a1VshIHSzYN51Owxl5qQkSYhWgJJUhatZWjBvzBTxdI7B0yWaBW5NAlI3OJA8T1q/dBV+vBIFedewwDnl5WkHVkgiLHlxRQnT2CJ7JqAI8ooTSO2fWw2BQkTvhEiQNuxvWYCDayAqNVoO8/Dw8ePAAGq0OOTmPodUZYbEqbB/dvTRBGQsQYIeklPHvBlhMRPlacPfOE9R6Oxv163VBatpIlPNJwKNHD7Hp+8NwdW6Mk6fuip7CkLcspGJkgDJLGUyzoGnjDmiZOliey/wENT5Fe/7L35cYAbDhXPlcSTRZ9uw+DLcyzfDdmh/s5hYp++WGyeoXnUH57Y8fvSCRwR5dPpJECa48ykzKQJNVi4LCQlQOSYO3Wxy6dhmr8vhsdDe/DJtim2hDE4xBVI7iQGwn8PiRBmdPX8WBA8exceNurFi+Gd9v3IfVq3Zg4uQv0L7DcCQmDETzpr1Qp1ZbtGo5Ej26T0VUeB/Urd0RsVGDkJkxGqNGfYbFSzfh0JGzuHPnLvR6hWhiX1XyqFWg5MePn0NIQDqqVcmCm1M0vvlmAy5cuIPggFh8No/AD3Id5c8ozstHLyXZEc3n4cPmoGL5eOh0VklQKVZpeHmoi/2mxAhAhUXZadWRxOieqFUtEzkP6XhRka9iCUAGim4tRgiBtOR34Vo2HHfv0G7Ot8tx5UvgEEya/BVcnKLw3oBPhCj0Ro3g517snSJIpfhTHHHyiRXYuv0IUlN7IzAgEl7u0XApHQV3p3i4lUnAP/7fCJT6axxcSqehUvkecHOOR+3aWRj9/nxkZQ5A/35jMePTJUiI64x6dVujUsUk+PvE4h//twHe+lsz+HvGIbJZDyxasAE6g068lyQ2RiOZIDp14ldwLtMEXu5JaN68Kwo1FtSr1Q6dOo4VkUmUsnLyvrxS+I2ISJsZa9cehHOZ+jh29LqITAdhvzgGv+RziREAXaRchCSA2zcfwts5BsOHzBTNlR405U192X9J2eZYqQvmr4dLqaZYsXIHzCa9uHeZTMHgDhE9S5ZsgodrDOLjB6OgkPApDixBI8qx4+gw78cX/0Z2v3P7IbTJGIFKQRnw9EiSl7d3MlxdY+HqFInGDbqhb5+pWLvuBxw5dhaLl25Gt67jUKVSGlKShqFl6kCcPXlF2iPePwa3rBZoNFrcuZ2Dc2evY8umfRg0YCYa1ukM9zLRKO+XhpS4d8U9LDqRwQy9TofsjHEIDmgNN5cIHD58AjHN+yMirKeIIwYyHG139MVxVoosw8RanDnzAEHl4jFvzho7ATzzWjp+/0vPJUYAomzR1LIY8MPeE/jb3xrj4L5zItO58pWb93nKlok3m2DSW1HwRIPaNTqheVhX4Whiu0tUjwRixvYdPyIooCV8vRNx6vSFp/Yy78GDETe2gZAsIoM1WgPWrtmH6Kje8PFIhKdHIjw8Y+Hlnghvj3hENO+FKZO+wbGjp1RcQYiUA6kGk0R18/o9zJ25CnVqtEFIcAIWLFwJvZ6hXSVyFJunmKFji0RoRn5+Pg7uP4lx73+FenW6ws0lCk0adcHy5TvF93/u7FV4ucTBtWwU5s1dhd49xqNh/Q5yX1ECf8JboVBH1IWM0GlsqFyxFXr3niD+EolgUUa+wlFiBCBRLZpdVivGj/sMLs4JEv6UFf4UMvUyAfA6CXYMng0/z3js3ntMYgfMnmGfjGYNHtzPRY1qafBwjUWDeh2g06tJckw+z3yOBFBsRpw7fw1ts8bB1yMZlUJaoWqlDHh5RKBiSCqyMobh4P5zyk9gUxyCCpYQsOgMCg7G4A2JkPe8c+cJUlOGwKNsNKZNnQ+9gX+jxcB2cNWqGL1i90aYzAzx0iLQYtnS7xHRdBCcS0cgNqY7Duw7hQ/GzBEXcVbGaIwe9TmqV01HYQHvyfSU4iW66iu5mgoqNWvSE2lp7wrnUHrU704AnASDpG1lpA9GaGh7GPTEA3BwlQLIDhY92CnKNYaDg3xS0KPLJAGGUB/gpNApotPpERXZFZ6uifBwi8CyZbvtziDFLjnxKnBC3L8NX32xBcGBzP5V0bhqlbLhXCoaaSnDcOe2VvwRnFijoUCZn3ZxwbbwmTLQNspbAjqYlML0MSaeFqJD9jh4O8dh8uRFooGTcBUh0OPEAI7CPMpiIFHaU9qIVlq4aCOCA9Pg4x6NiZOW4u3q7fB2tbYY2H86Koem4Eku8QEKcPr8MnGMGMeXhKb0qbZtxqJhg7Z2E5rtfn5sHVf93LnkOIBoqQbkPtKjbu0spKVTQ2fDaKey4VRvnm8kB5vUO+jdT+DhGi0ykaARDqYKsljwxdwNktZVPigLoaHJKCykKUhbW7FeuYfNhpycfHTrMgZuzs3QInm4ZAMzeti4YRf8sJsxfy1MlifK2SJACzsAVAhUcRQOFu/nYLfK9FLsnngA5hP26DYRnm7h2LblR5kQhWKim5l9VK5cXs+XgFoFGUTt3YpbN+/LhLu7hcPDI16ArKmJo1GhfAJyc5nlTF+F+vfyxBHEaley/z1uI4bPR4WQBOWnsOjtwaqXr/q5b0qUAMxmPS5duINy3jGY/ul3wtq5GjihalDJ4tQg8TsSyNUrt+HjHoM+PafBZtPZkT+QDNuTpy7CzzMOHTp8gLerd0JW1jDo9XQHk00r7kI7/OKF60hNHAYv9+YYMXwewpr1Eu183NjPUaihksi8e4VDZAsY7OMqU5Bsmo9KESUrF3ZuZ+0OjiBtp31vNeLho0dITX4PIYGxuH+X4FIFdKVS6DiEA8DMnsIibF2ZyPyJwWTCwoVbUT4oWfIB3VxiUSk0Ebm5+Up/sXMkx70cZxEP4gZXxPrJxyskusqFTwi8AqY6fv3LzyVHAKR0sxFHDp+Hy1vNsXPHUcVOX2iLyp9XK5+TMmXiQvi5JeLyhfui0FARIqPQGszIyh6KwHJJOHryCpzLRuHzz9c8W/n/5hwUMQ8e5KJBnbYICozBlKkrUc6XbuGW2LHtKIgddHAKNoPvX+VQXIHcTHkBTxy9Ch+veHRq/z6MIuZMMBcb2Xz5aXQwcQx2bj2NoIAkBAalIKR8DPIJcKEIEn3p5XayDY4X9ZX5n6+Hm1ME9HqVgyDs4eXH/ew3JUgAykmxfduPKPP3xrh588lLA86GK05gEZb86FEeqoRkIj6qn1gJBIkwH4D5dMtWbIGbSzg++mghPvl0CYLKpeLYiasq6YIp2iYrCgr0qF45RVC98+atgb9PBAL9UnDj+kOYraoUi0O5U5P4vAj62dEp8gM1+Ap1zEmaOHEhynklYtf244pz/cJbqyieDga9GfFxfeDrk4oqldPxhN5MyXNUXKjIo+WtY/J5Zp+WL9sFD9cI3LpFFzhZ2jMO9OK1/+lziRIA3bgb1++Dy1tN8OgRwRbPU7IysSgf6ZQxYM6M5fD+d4GFk8cZK1DIHOkogKaNO6FB3Q6SH9e+/RhUq9wKeqnCoSBidCH37zseHi6RmDv3O7xTqxPq1mqLWzefCDTcaFAKnaMNjvN/Goz/9DdeL2JHEL4maDRGVApJRZvWo5QF8QKI5KfupSDkjFaa0KXrWHi4J8PVOQKTJy+26xB2+fTCDWRc7FyABLBhwwFJQD116qpcJwrJC9f8ko8lSACKfa1dtRvuZcOEol8cdKXBKn2AnYhs0hMRzbqJz53sj5PG32zduhceznH4asF65OXl4u0a2ejQ/iOYJFagHDxffLYKPu4pGP3+l2japDNqVeuA8+duw4JCu+9BEQAHgQTnGMBfMigv/4bsVwW6+DeKLuYfzJyxTOTwvt2XAPyyBE6JTzC/0WTC+6Pnwt09Dr7eLQS1vGv3CcmUUhrK861wtJ9njt3WLYfh7RGBH388q1zwRXSQ57kIjpgAACAASURBVK/8z59KkACUPbxu7W54OkWgoOAZVMrRBCnGIKVWHuPsqRy4uUVg7qwlCmxpsQpayGDUo+bbLVCzaiYKCoy4dzsfZco0xccfL5eoFwmksDAfVSq1RkRkW7w/6gu4l22GA/uP2DGGZKHKKeN47v/fsyhgYvezj3bPpdGGfI0GVaqkok3meJit+UJk5HKMODrMw6ITJ1YCA1RU5qwGzJ69HGVLR8LbJ0IcXDHhg8TDSE7j0JWemdDPdADeZ8+ek4KV2LmDOAvqJg5I3X/X2xIkADUwm78/AOd/NcH9+y/j3ZnYKSVZLAXo02MKggIScefWY3G40GSiCXjm9DV4ucZi9qw1Mqi3bz/AW/+MxYqVeyVdigmdvbtPhIdbFL6avwel/tFIwBbkHg5QqWjzYpb+d4PxU78uOoliJQjQhChhK/r2+QTMIOJEOWL5IpLtyhyvdXAg3p9xEa5wWiCLF2+Gq3MM3irVFP6+yXB3aY5VK5gnQe5F85Nncpxnk++43/btR+DtEYv9+86qQNjvzwFIAFbs3nUUpf7aEJcuqiyZooNKaLfJTOVNg9Dy6ejRfbIMDv3bdCLRZz5pwgKULdUY1248gN6ixekT9+Di1kSQtOu/24WvF21ESPloxMX3Q0J8X1QMTsOt2/dhMLJAE6ttqGQU5aFTA1e0Da/yXhEA+0dHDaHjhLrrBZ7N6mKuzvWxefMpO7zc4QxS5q6sTrsuxPswY4muW4NRixUrdqLUv5oiJXkkKoZk4e3q6YiOeFcm3nGdXGMHtqh2KILatOmgQOUO/Ui3OMvl/UIt9IUBKGEOYMaJ4xfh8lYYtm552QwksJHtPHzsEpxKRWLDBhZ9UDFu+hB0GhNqV2+JRg264ONPViE7e6j4vL084+HhGgf30rFwKR0DV+cEidT5ejAsnIDQ4GQkxPfB9E+/xenTV+z+ejs45Scwdi+Mw3MfHQPtOFPhpJNGAkGEfJls0OpUGdlHD4yoWS0VaWnvy/cS9KLHTkAaz7yVT30KdlOSq3zu3NXwdE/AtE++gXPpePToOQ4+7sm4ffu+PUVOeUqf+SkUQZOjrF61C15u0Thz5oYQ5SsaASVXK5irnyvj2tV78PdIxOxZK5/KS1kA4mQhB7BgzPhZ8HSJx727D6HTaaEpNOPkybPo2mkE/Dzi4ebMoE0yatXohJiod+Hq0ghfL96Mi5dvISKqPRo07IH4+P6o9042lq/YjAG956BOzY7wcE2Aq1NDxES0x9Ej58WdqziBEk+OCeVss01PXw7vm13LVrJarTTa7Y8e5uHIoQtY/PUGjBj6CTLT+6Np4y6oUTkeVUKiERKQDG+vDMREdES3TqMw8cPPsHb1Tpw4fg737uUIyJUwMd6XdRD0OrrHTejW9X1p83cbv4eXc0uMfP9TOJeJwoIFi+3mrhUGg6PIxTMxQO7w9aIN8HSLxu3bueKqJkT+VY6S4wCSVkWwowH16rRBVvZEe/ya6VR07bK8mgEajQk1305Hx/aTcO3GbUz8cAGqVk6Gj2cMPFwjUc4vEatW7ce9Ow9RUKDFuvUH4eIUjtOnr+Hipatg1c7J0xbC3zcOkycsFhucOP/CQi2uX32AebM2oHxwIny8o9EmYzSMJiP0+kJZnTQ9SQRqMhQBUI6bCcSQCmGUuSZoDQas+W4HunUbj+qVW6OcTxJcyjZB2dL1UTEkERHhPZCdNRwd249Hr16TkZo2GE5lwhEfPxBNmnRAhfIpcHcOg5dLpLyCfGORFNsfo0d8ic0bDyIvl7hBK5o2aieYxr0/XEXF8qkYNHAWGjVoj4z0PjAa6VcxSv6DJKIUCRVzLOfMWyEFs5idTs5KxfJVjhIjAIUGMgp2Lr3FQFSv3l6KIZDVsVoWV6LFosGFC9fg5twYDd8ZgIqByfDziEZ25jCsW7cPHdqNR41qGeJCZYCHZd+2bD2IsqXCcebsNezYcRDObzXH+6O/gLdnBI4cYm4hVxYxiBrxJBI3x+jd2HH8TRj69/sUZ05fVXBso3JEUQlT15mhcgysAiY9dvwShg39HG9XaS8u6JDARHTtNBGfz/seP+w+gdu3HiLvSaGgjs1Gcgj2yYjjx6/g7//nHezZfVr8Fvn5eslnOHbkItat3Ytpk5egfdYYVK2QJlDx2Ki+SEociED/ZHhK0uc11KmVhTbZ72PokHnw9WiGx48ZuyCMTsUAyGEdooBK4bjx8+HvGy8WowSRfn8dgINqFQzf0MGfICCgJe7fz4XepHL4TGYbzp6+gS4dxwkSp0JwIvp0n4QTR2+I9s5KmTFRPRHWpJ9U2+TgUuZu33ocTqWjcOLEJcydvQoB3gmICO+J+vXaCTchZIyrWmSvmGgqF5Fsct+Pp1ClYmtUrZiJ06eui7WhNHUqago/wAk8c/oG3u03E27OYfDxikbrlkPw7ZLt0i4D0UQEkwpo0yQrUgAqopkbYDA9wfVrD+BRJgbzP9sgPgIqtLRWeCZHUcRGrd6C4yduYOLk2Rg4cDbKB6XD2yMOVStlIsAvCTGR72Le3O/hXKYhrt94CItNA7NgDx0iTPWVq71nz4moXjVTlaRn0O33tgKE/VCuWi1Yu/YH/PMf4Th79qYkgN6/p0Fm+jC4lw2Ht2saPNwjkfukwF5pw4ZCzSOxfxu+k43M1HECD+OMMunzxwOX4Fw6Fj/+eAofjJyPcl5xgqvLbDUKFijWJxFHJpToFaaeIWRW02Am0N27eQgNSUWVKhnQMSopETWTVCPj6h8xajo8PZrBzSkGg96bJWXjmZRCBJIAWaHuSyJzHBRpvDdNWmr1OTkaBAfGYdSIBTAYDTBKTSKmr4nFJ7gGEihfkmVs0yMxrjdSk0YjwD8CHTuMQfWqLeHhEgNP92ZweisMX87fCo2WE09MhEI9PfUtWGyIi+2DqIi+bJ2kzXMMXuX4r0WAUqTIjkiNiiLlwVwRVmbNanD61BW89ffmmDXrO7Rr8yHKeScg2D8as2Z/jYhmAxDerDPo8GHMnStQoNdWM+rX6SiUzS9oFZCjXL5wDy6l4yUdqmf3qQgJTEWV0EwMHjxTfOdkxbI6ZfWzPXbZztCsjeVi9Ni//wwC/aOQED0MOh3RvhacPnkHdWu3hZtTAwzsPxm3bt2z1yRivuEzBVEpkXyG/TtRGHlvfsf221BQWCD+/I4dPpTsJce4MPKpxovEw9/bYDZaBMUc4p+GtLS+aN6wP85fOo9hg2cgyC8BM6Yvg4tTEvx8Y2XvgejwIZg2bR3u3qVlwAwnoo2tqFY5Ex3bfyhOIOpAQhxS79SqALDybH6vXlRAizv+awLgTWjiyFni3rR3CZ5g42wS7ly/YS88PZrD7d+OjcoVUzBhwkJZiTqjCRWC0jHkvU8lFqDWlEXKpXPC69TsgAEDp4nCqLZqseL+3Ud462/N8c2STejZYyoC/ZKECCZO/EallwlekJP6cvcI8eagG01WfLPwe7g7NcX6tfuxdPE2BJeLQp2aWdi66TBYw5euWWrmVBB/yeEgABKLzqBFjerZaJk+rAj6mFP+8qAzJY65jM7/isCMmd+izD+boUD7COPHfAEqi8eOXoazUyS+/norvl64ERlpQxAaGgkft0TERw3GhI++wu6dJ4RzfPDBLBgsuQAroEk5HFoXytrghFMMOpxKHAcViHt+oF6JANTNaPaxyhcLHOqhM+Zj74HTyGo9DGXLNIGfZzZqv90W128+gZZauFWPi5duwds9GnNmrYTeyIILXLFWqdxFnH39Ol3Qt/9Ue66c6ggTQ8r5Jggyt3+/aQjwTUagXzKmfbwMJsK2RBYzoeTlgwPAYtEGkxb5BTo0qJuBiuVbwvffPvSosE7Ie6LqEFHh5OSrASvuTi/fm7ANcddKQScdatVsJwmfz+Dn5BjPEwDHjcUoYiO74e3K2Vj73Q689fd6yCvMwaYNx1AhKBEHD5yDU6nmYsYqfARw69YjzJu3GnGxfeHvFwOn0hHw98xGzaodMHvmctyk04xl803EBXDc6G5m2JnFrZ85pNg/tqHo8V8TAG/AiSd1EyFD5W7Vyu2oU6snyvwzEv6+0RgxfDrmzVkJH4+GOH78AiyyWZIN69YdgL9PHDZv2q/kpz0ThtTLzRKaN+mL9IxB0j4SBxvMAWNF7eSEoRgz5nOEBGTA1zMe48Z9Ze8oWStXetFuqffsPNtrsuig1ekwd9Z6uDlHonPHCdBqWbdAI9W6OJGOFfPiAL18V/WN4HZk5xBAZ9QUzwGKEADvy2dcunATHk7NMXvGaixdthkezpGwQIcPx36J6LC+WL9uj5SRv3LpjmxIxeogDDTSyiGsPV+jR7/+U+Dr0xzhzbvLmPu4spxcO3w2bzkeP6bySU+jRYFRiriilTh4fqB+EQGw8Y4OqIGy4sSJyxg66BPUrt5abPN6dVti7ux1uHUzR9jOk8cF4hCaM2u1sHS6PknFfj4xuH79oRAA2RPz+OhZs1oLkZXxEcLCO9k/q8mjzTtgwFRUqdgGEyZ8CV+PFASXS0WvXh8JAZhZ20+07ZenijKT11Pm79t7CuUk6JKMge/OEOIyMftHMnmULKeYLC7B5OU705vLgaSlAhRq81EptCXatxsnolAN9DMR4Bg/EvTkjxbB2yVGvH0LF22Aj1uy1PuZMP4rBPnFCgE4OTfEbSZ/8v5ccFxADl+KxYLw5t0QF9MfGr0JJ06dxrSPFyMyojfcnGLh6R6Npk06of+AyVjz3S5cv263skQ0kDs885ByLv/CAeDBD3xRi6eMZ1EmKnVkK4Q70Xw6ffIq5s1eieT4fvD2SJBtV7KzRmLlmm0C4nCwGN6HR706XZDRcrDk3ukKTBgzdh78vVNU2VRRXPhMuzJlNWHC+IWoUj5DVrNUwZAS8SasXbMdgd4pGDnic5T6V30E+KcgJraflH1XihjZ7fOUzeeTMzAflDCuBu/0Qq1a7RAV0RvNGveERq/KthRzmbT95/4THYCavc2AR48LEFAuASOGzhZPHzsgRMngl+wYws9GKTRVrXIbpCb3EZNw2pRFCAloKSJ02JC5qBCcgm7dJ6Bz+w9QmE/iVMEgpWNxPkwozC9ESECacFmOMzOpqYjS13Ly9A3MnrMSma1GoEa1bDiVDpdAVfOm3dCjxwR8MX89Nm/6AWfPXLYXsjLjL7QpCcOySPaMXm2KBBs0/65R9zi3EGfPX8GMGatQr24m/LyjZYeMhnU7Y9KEzwT0IR60Ihqmg9rZuJEj5qGcT7LIX3ZixMhZCPZPV/g8cV0qQuE1VCJXrdgBD+cmyH3MbVSoI3AACK60wcslHH37zJSImYtTJKpWS5OaQyajwvsVRwDMI9QbdFKYgnsEHTpyARMnLBLb+8FDmnFMF/u5qS7+7w4CoFl348Z98VYSpmWyo3ZJAIKF5EKCUXwb06YsgJdrFM6duSfpbsOHzkTNqp0k6bNbl4moGtoGIeWT0Ln9cFlwjBiq8VSKNnWV61dzUPZfTbF58yF7LgJNSzVOJEYGqTgnWp0eJ09exEcfLUJifH/UrtEO3q4J8HJNkkRVlq+pUa0V/iIrSLZEsSHnvgHbdxzHxIkLEBfTB8H+DLawqlYkmjTsio8/XoKLV26jsJA1asiiOfjM21Oj6JgEnqlVHz1yDj5uSZgxY7mYamRLlcpnKXAFtXeyOGFJSq+4ceMxKgRH44NRn4k5RY2WnIcomqiwrqIjREX0EspOTByC/XvPQVP4xB5/f3kmycVy8zQI8E9Cj25TYYUWCxeuR9lSYbh2PU/pDsWZD8XP+XPfCpsXkcHdwq7i//w/dbFn9ylYmSUsXE2hofk7Krjkjg3qdkJcVC8RSzRd27YZhaZN+okCmxTfH+V80uDvF4c1K3co8KvdzFQihezbhsEDp6O8fxJuXH9grx6quB/vb9Tz2SQWcm4+UwezTSNKMF3lD3JycfDHy/j8i/Xo338q0lIH4S/vvfcJUlsMQK23MxDoHws/z0R4u0UhJrInhgyahrVr9+DSxWvQCrqWW6QpYCQf6CiDTgagKPUZIcjfjUYkJ/RHs0Y9RJnr3fcjVAttr/DvHCSpk6s0U8ppdrBd9lBUqZiMvDyNcArelxQ9etSnUu+vZ8+PkJoyBhUqtESvbh8VKR3/3PzIB+oX2W0GIzioJc6dvw7K/M8+Xwc3lzBcv0ksHVfYy9f9km8s4hmkSWzB6tW7UfatWFy8eEvct4oAuCppHvNlxceffA13p2isXb0DJouqXRAd1QsJCQNEyatbJxN+nsnw9g7Hw5w8e60AlRxD6DlLy+TmFiIkKBHZrT4Q5ZULRJl9yppiX6iTiO4p71XmMxcRdSG2xWSi4kviMEmtpL9UDW2JpIT30KvnVHw8bQW2b/0Rjx9qRTlTk0pftP0lZhsniihYlcjIBaTyWdSw8RrHQTNk4cLvRKu9fPkuevcdj2qVmMxApYschA1Xco5UTrGxc/spuJVtjO837bXLeCXLL1y4DQ/nKMz7bC2CA1Pg7RmPGlVbS1q4Qa/Kwzqere5lwYP7jxFULhnvvjdbRAo5Qv++dCYlS0Vx9exn7XW0+5ecuTmU5PwZTRg0cCoCfLPw+HG+mLsyXtIvtTVtzqMnCK2YjIy00XZT0wCDwYK6ddqhT5/JMmlBAVEI9EtDdFQ3WWRiloqSrMaJeyTs238UTmXCsHH9UYGCs58qPkCXIyHoNIcJR7dIPIWw9GeLTP2WDhNeRk5BzfIv7ISiWGWmcBLUxCvN3zGov2RQXvwNJ/re/QIE+CWgY7vReO+9GQKF5uQrAlA6gOM6PovmmZ9POMLD+uBJAcugcBB14KYQ7w//SjD0BIz6eCXA0yMey1ZulYwgxSaf50DrvtsNT5dEiQlodRoJPTeo0x4pcUPERmcmz6v2jzqAQa+FtsCMRnVbo2mjAXIvrjQePHNc6e2cNHmRuJr37Ttj/40Jjx8XoGJACmZ8sgIPH+gQXC5Zdidd9u024YScB8fBNlqMFgwYOAHe3gnIefjkF1srjnv81PkvlBd8keIoj/mwF18/dfHPfc9JYW2fKRMXw9MlDK0yxsjqVeFNulOfhzJLRy1m7Nx2RkChU6YssheTUuJm7dot8HROxezZa+DvnSBcoNbbnVCoyXsqLtgm3ofipG+faQITf/SEhGTB7Vv3ZRfPz+asg9FE2DiJ/ed6UfzfGaolPvHwwUtwLVsfq1aeVFbUc3a3DafPXoCXSyJ69ZwiW9WSKDje587dlkzo7duOYfeuk/D1Ska92h3stYWfnwMS0+XLtxEVMRC9+0wVQCr7VxKHWAFqwu3yo2TuK21T7lUd7vzbk+Xu3AyBgS1k/938PLuHqhgCYMdo2iQn90BwuUz8sOeYiCCWWX2Q8wA1q7VHZER3tEwZDk/3SHi6pIMr3cG5uHBoFhUWaKXYc1rKEDHVuHFj184j4OfVHDdu3LMT/avrAErZsmD8mIUI8I1FQZ7D9apEGceU+w+0zR4MP+8UXL36wF4MW4m91St/kPJxl6/cQpcuY+DuEoW5c1dJ0WvH6nf0iYM5bvyXYlHdufdEFquw8BKgAPEDsLGUIepVchTA7VG5ESPrAwwdMgeeXtEo55sqlTkkkZLejSKHECIdMxY9rly/gxrV2iI5cZCUlWcpFIqBNet2wsM5HlMnLpX0qkD/NKkLmPPAUTVLEfLtW3fh7ByGObPWiRa+9Ott8HIPx1dfrpEVxCASS7i+KgewihfUIhs6JMUPgQ1aSVLlpIkCbDJh9uyl8HSNx+dfbJAIodQUEg5rxHsDPkbdGp1x524OyvnHIjy8F/Lyuc+Bw/RTIpljwg0jqlZtjbQW70mbRdF7YfEUGcb/6u0v8gT+V3cs8mOZUBs3aDTBoAMqBGcIEnj1yl3i7aMGq4jv2UWOCWFIlrl3nk7N4OPdBCdPXIWR99GYUL9mS9R/pyPmf7UU//prE3i5xWPksDkic2kLs0zLuVPXUeYfSThw5AiWLt0JL5cEtG8z7GmxSE6Sat/PE7yjH47f82y1GLF+w36ULd0Yy5fthwU5MLGGIXclNxhx67YBFQNT0SKxl13xoyauwJtMoAkP64bMjA8watSXUgJ22eJtsgGFJIjacYP0H2h1+fhw7Hy4ODXDD3tP2k3o4pNHno3iL3/3mxCA6BZWGyZPXoKypZri46krFYLHXiCxaHNJAJR5rDNERfHQgUsI9M1CgF8UJkyaLSv28OEz8POOQb8+n6BDh+EI8EmHj3tzrF6+S7iHwViII4dPwtMjGknxw+DpGo3uXSbK7iQyeS8oukWfX9x7XqPCuSQalQPJ3c2aNOyI5s26Qyv1ChhQYtq5GXl5hahdsxVqVM7AtcssjqmUTd6H9jm3qa9WNQOVK7SGt2eklI25cvGOEAB/o/QEchKDZD0HeEejS+dxMDjKz6mtUYpr6n/93a9KAEqG0Z9NhcmCgkID6tTogMos/5b/UGxoNbjP2s3PanXaNWmbCecu3kBqi0HwcE5A40ZdseibdUhPHSGRwa1bjyMqsgfKeaWiUoUUyUk8ePAChg6eAXfnSPh5JUolDsbsaQ+zTUVl67Mn/+d3JErVDxVf+GHvafh6xEuSJn31ir2bodMV4L1+M+Bcqik2rjugilnLvkOcUDq2dLh7txBe/97swserBXw8ktGoQVshTu5yQqJXYoTVUK3o1f1D+HrE4fiJy9AZGBBSxMTflMTxqxKAmEJSeEFZGNR+e3WbBH/fdPTr/yEMWsWGn+uIlIp1mFK8jgOuYhFLlmxB00Zd4VwmBkEB0XBzCkP5wGRktBwi1UC4tYqnW4TAurw9ouDtkoRDB25Ca3gEsyVPbd9ilzEktF86iM+IktaSBbmPNHi7VhvUqtkKjx8VCvqIxMVM4VkzlwjhTZ+2XNrNVazCs0r75yTPmrkRHp5RshMIYeFffvW9AGnoEpTkFlrvVgu2bj4MD9fGGDNmoQKyip3PfQdYR+BPQAAcLFk5dmiU2WDA4q83w883A+6uMVj/3bbidQCp0EGWSq8jua8VFtlxjOAOC27fz8EHo5YhJXGkFGtwLZ2AShVTUa1KBwT6Z6JOnXY4d/GWbCq9YztTxhwWjoqEcUIdr+eI7z98cJjLVMBmf7oMTk6JOHjossIRMLAFKz6b9Q3K/i0FnTqPs9cRpBdTYQ0MTOO2mnBg/wl4ujdFlWqZSGs5AuWDUu1FK7WwCIu3gpXP7t17grq1slGpYrqEgDkOrDQijjc6315QoP9D0//jn35VDvDikykGTp68glJv1YOPZxJCgpNwiMmNDGLYt3FTsf3nFTPHZBU9E+plMJhx6MhFuLs1RWxMP9y7n4/MzCHiQ2jWuKvkF8yYuVKhlcg6BT3kYLH0ASin14vtLPocvlfRUQtMFi3Wb/xBIn8dO4+WVWk2aWA2GfHZ3BXwdI1Ep/YjUZiv8v84W1QWqc9w99fJE+fbkcAR6NVzJiqEJGNA/+lC5ORG1BUoJkw2IzJbDUeQfyKOH+XGFq+G93uxX8V9/m0JwGLFkzwdKlVKRNOG/SWjpkHtLtDoaP4wf4DyX20fU7SxL04IP5OzkE3q9RYsXroVvt5RSEjog5xHhRg9eh6C/FvA1yMVyYkDZA9ibvFGlCZXsCpbxyQVgkefJzY+VybdLmPVe7JmPa5fv4XGDTqjVs02ePT4iWD3CRydM2cZSv89GV06jkHOA5qDtG6Yb2CE0aLHhYvXkJ09BF7usahVM1MALVHNh6B8UDTOnrkHJp8Yjey3spjGjf1aooafTFsMk1ntgVR0PEry/W9KAGRjdPSMGTMPbk7hWL50NyLCeqHhOx3w6FG+rBQF8Xp5Ul7stIgWejFZoNlsw4oVWxDg2wKh5Vvh1JnTWL16HwJ8k+Du0gzZrYfi0KEL0LNWv+QPcN8/4v9+2pxyEAGfQ9gbS7g0rNMJwX6tsGfvCYlucpvb/n1niTjr3OV9aAq1kslDCJpWr0HO43x8PH0VPN1jERSQgEWLtqB//5kILpcOH9d4DBo45ZnCx4CP2YaFX2+Ee6kUDBsyTWIheh2VPlWD6MUxKInPvzkB2KwGnD51Az7uUVi9cjt27TkGlzLhCGvSFY8eFUBvYIz+5wmAAAh6Gvlbg4Hl5S04efoyvD0boexbzaUq18aNZ+DtEYkgvzSpGRTWtBP27T4vZhbZrZLrL8c+yI4dBMBBZruiwnvDvUyEwNkYVbtxTYM6dVrBzS0cU6d8K8EZ3k+r1aOw0ISxY75CYLk4uDg3RnbWCNlV/O7dewgKbAF/rxSU847CjWs5MLMMrs0Crc6EbxZvhZtrGNJT+wrekO55JbZ+vY0uflMCoLBj/T+dxoi+vSYhM224rMLt247C2zUOkWG9cP3mPYkQMlWcXFiAF3bIt/JUqgxdTpAQigMGLoRgxJ3bj5CZNgKezs3AcCuTSr3c40Q++3mlw8M9GvXrd8DAgVNx4uRlAazKZlBS1YsiyCahVwdhXb1yD/Gx3eHi1AibNv+InId5GD92AQJ9WuCd2pnYsu0HQfuw3M2aVXvQpf2HCPFPlbKx7bOH4OB+pm8rfWP+Z6vh7hovpWI/n7feXgWdPg8jPpn6LbzcYtG+3VhJZ3PoJ0/7WRLLvZh7/LYEQF1Z9uu1Ys6spfBxi8XOHfvFvl25bLfsr1u9ajIOH74gio/Vylo6qtSMCmFSPiv42ot9EWcLC1WbTTDqbVLhkyFYH48UhFZoJX6DQP8k+PikwMMtCeUDW8GpTEM0qtsRA/pMx4Ivv8fBgydx7vwF3Lt3F0/y8nH48FnUqpEtUPYvv9yKRV9vEmQUy9XGRvXC6pWHMHvmGnRqPwFVQtrAo2wEalXNFuI+ePC47I7KdpPoKfoSY/vD041InDQ8ySMgxYi8JzoMHzIbns7h6NH1A+EEQtgvdvBX+vwbEwAHgxh+bvdiRY3Q1mifPVL85EwhO3H8BqpW5bY0nAAADPtJREFUSsM//14P8+Z+B+bYkT06VoHjrPIQXxgRIQwqhgbZToZs/EmuHkMGzYOfV5z4BkLKJ8LLozl8faJQo3omxoxejOTEwZI5RLj5P/9vE7iXTZLqI/XrdpbchvJBLVCtajYqVkiBq3MYfL2TpKiDc9kw/PPv9REclIzKVRLRo9c47Np5RHIDCWBhW6XgGXMjDfm4cvkxAryTZeucE6euSjvPnbmNyGbdpdjFpAlLYTLqYZOspJ8XgS/0/pU//qYEQIWKrI3ZQ8zIHfP+PJQvl4kHORaYbQViDubkFKJt25HwdI1F3VodsP/AeVk9MqDcNEICOM+HkaX3kpamlHoVhTTDaM6Xa9u1GS3p6KEhbVH2H5HwdkuGS+lwscGTk3ti+vRlmDd3I8aOWYQG9bPg45MAP+9kBPi1ROl/hkl2cO2abWXruXZtR2PosOlYsWIjrl29i/v3C0Tmsz9K+1eeT0caF213KpupKQMFkj5l0pdSCWXY4E/h4xYp+QFHj1yBwaiRothE/rxyhOoVyOA3JQCprsG98wiUsBhw5+4DVA5NR2JCH7HpWfCQA8fESkLR6tXLgpdPLDJaDMC2zT9KXj0JqDgOQB8DYdrKjUwcnkrkZFzg0qUcVKmULkWbd+88ii/nf4ce3SciMqIfKlVsLVq66AnucYJ2rlOrI5ITh2HEsLnYvGkfbt66I+ya+xaQw4i7lv14CrUmBo9RPIUSUgAb7krCVDk9li/fBHomW7f6ALM+XY6a1ZKl7vDQwfNw4/Yd+zZ2tGgIVFUIqVeYy1e65DclgKIt5Iomm5732XK4OyfgwKFTamClEjfdv0Y8yS3Ax1MWoka1LMHxRTTrjc9mr8e5MzfAPYQ45+IPsChvm0wIuQxToui7l/2K6WQyYsk3W8QDN3ToDBTqdLLDx8ljlzD+oy/h65sIb69k+PnHwM0lDqnJ/bF21T5cuHBLkj2lZrD44NWk22T3siJQOTtkjg4hTr7yMxhhtGrx3bq9si2Ml0ccAsulwdslCpktB+HgwdMiBlkw4/c8fncCyMl5gqCAWDRp1FWw7Wr1UMNX4kI+W2z4dPpiNKybhbf+8Y4AQerWTcMn05fgzPlbeMK9AZmVa6ItTWi0epkYVTRroTEUolBrRGbrwXAuE4HOXUeiUqVo+PskwbVMNBrW64SvFqzF5Wv3hFUH+bXEW39rBDfn5rIXIbEMe3afweXL95CXXwiNtkD0DG5dx13P5WzSQafPR86jHPnd5i2nwJwJL7cY2V+YlUtaZQzH2VOsiUiXtqqLxH7+nsfvRgDstJLrZhw5dgWeLgmYPecbezVvlUghGHdJVGF9YCvy8ww4dfI2pkz5GlFh78LVKUxSqoP9W4mcJs49PnaAbO+S1XoUUlNGICysB+rWaYMAvzgpqlSmVFPZ+j2oXAZmzFyPy5du2z2FStmkjpHz+BEOH7uAcWMXIj5mCPy9k2U/Qg/naAT5pyEksJXoD29Xb4v6dbuiRvW2oLJIJ5Gfd4JsBuHv20LK3Hi5paBCcAKuXb8njiiH/4HKLZVFcsHf8/hNCYATzpfjkM9Wlc7cufM4hIak4OSJK/awKf3f/D11BsUNKOdpRXAQmbhy/cYD7Np1DCwT+8H7X6J3j2lo2WIo4qL7Ij6mH5ISBiIr43306DoZH37wNZYs2oGDB8+id8/J8PGKQmbmYFy/TniY2pHMaGDwSiv3pznJZ3NXkrv37uLIkTP4bs1OzJz+Lca+Pw/9+0xDt87jBezavct49O87DWPHzMLoUV9J6jYzo8v5JcPXOxqLF2+BwUCYOyuhKdFBDzS9nsV4oh3D85ucf1cCYA+ZOmU0F+Axdwyp3hnRkV2g1SjzTzxhlKnUF0g39he5JpU9pfA5oFMKrOEgMC4sXsekEuVUYaCFbJdoXTNmzfgWocHpCPRJFSwedwWjw4a1e6jQUZ8gjNxq3/DZSh1APIRM0eJL+SOo6FFxyyvIx+qVB1G7ahaC/eIxetQ3CA5IRGbGUCnozMwn6YQ4rhToQ2ITr1jgsaSo4zclgOIarVY3PXBWbNt0DGX+3gDDBs+U0CkVOTKMZzyjuDv89HcOjuM4O1y83EVMp9Xjzs1CNGnUDmVL1YOvVwQ+/Xg18p7Q7+7gOOrhwnUsOjFTGblkHMFiK5TkDZ0OWLX8MCpXbInSpRqiXu0MXDz3AGFh3eDnFYHLFx48xVoy1v9HO/4ABCBLQtypRoMRM6evgKdLE6xevle0admf7xVJwDHxz58ddrrajURTWIg9O04hK22cVB338ghH04bd0afnVMyfv17CzZev3pNs3Tv3CnHq9E2sXLUdgwfNREriYAT5J8PNtTmaNO4iO5I9yc/H9Gkr4FymGdau3mePV6gsZLbjj3b8AQhA2fUs58JULQZT2ma+j/L+6di9+0eBUpfUuPE+yjvH7V2e2exk9wz3njlzRUrUZrYcgepV0hHknwB3p3A4l24Ol7LN4eIUBlenCEkurVSxFZo37Y2xYxZiz57DdEKLj2DZtzvg6RwtqfOsbaAylFm4gaLqDQd4aQGwGBPrAwheTux5ynKr7DdcvUpb3LrO4FDJrBzeRwAXIlqU2JEdPSQDmelllO0KNcRt7s+duSViaeO6w1i2dAe+XbJVchCOHrmMe8zOYUKNVBtjdTQb9uw8jUC/BCTE95IiVNQVmM/AiefcE972Rzt+dw7w4oBwkqjAGQ1A/frpCA5qBZ3uISysy0flz0ZYVMkQxIvPdnxWbXiG76drmQ4nnqU6GIGljGfYJ9VgzMWVS/fh65OMJk2zoNMpk/K3dOk62v7fnv9wBOAQ91QKL168j6pVk1G/Vi/cuH4fVk6+ePd+PYhU0QEkITiIgQokrY6nZzMJlUEtHXbtOivFrxs1aour13KEQCU6WULpW0XbVNLv/3AEwAHnSuOGDAyiXL76ANUqd0Sd2q1x7MgVKZFGV69jckp6QHi/F+/t+KyCWRQdFpiNhG0XYOFXmxFcriXeeacNbtx6JLWQVbxAgVV+jfaV5D3/sAQg6dH2ib7/KFdqCIYGtcSW7w8IdtBh0pXkYPzUvUgArM7BM9FHfHaBzgjGFbg1XWRYd6l0wN8Q+aug7Dz/vl6+n+pP0e//oASgWC29ZmZq60wb1+ml2ARLznz44ecyuL8FEThWP7mSQxe4du0aatRuDXf3JAwZPFO8k7J7mNRVUo4pto1i7I9+/OEIoNgBkzwBAx4/foJBgz6Fu0scWrcahjNnFLCCVoNULqF7jqgjh8euiOuZE1ncilTmJ6+nvOfT+TuVLi+Tz5R5cUVboCnU45Op36BicApC/GOx8tvd0Gm56u15f8U2/o/95Z+CABheJXzKbOFu4TYsWPAdaIeHBLfAjBlr8IibLrJSqWAOVbVP5f5VSpxjFRc3FVTWHC5lXuNIY+PzDEamk1mQn6/F+vUH0LxJL9kkqk3bYaKUqrAv8QGEl//xbPzi+vvid38KAqDvn4ETxtsJJmGI+Or1W8jMGAlPlySEVmyBzduOIK9QL5lDrEnIieThmPyfOituQUJR/gdiBwxGs4gcpmuvWrkLTRp2gqdbLCpXSsSOHSeh544hWtr3JExyDHtdnhdH90/w+U9BADQNmTwhARhJnlQ6AlOojp84j9o1M2WTyRo10jFlymIU5qvauQ6tXU2SMuNeJATK6affMZPHDBw5cl4AmlVC0uBWOgz1arXHuvU/QqPVS5FrbnDFF6+jpULR8SfQ94olxz8HAUhlci4zrmhOmEroUHY5VyNz9X9EUvIA+PqEoZxvFJLihmDs6LnYtPFHXLxwG3fv5khVb41WA42GtYM1ePDgES5fuQtu/DR50iK0bzsKdWq1gpdzNEKDUtGnx2Ts2kWgp1YVXhLdgmyFuobSN5TOQPb/x1f4iqOAPwkBFNf0579TO4ZZceToFYwaOQ8RYV2lQINr6WZwKxOGSkEtUa9mF4Q16oWwRr1Rv1YnhAanSoYSizOXD0hH7bfboU3WWHyzaD1u38oTccNwMjnJ/+rxP0MAChBKtkx0rkW0+vx87mJ2Bcu/3YEJ4xfJis5uNQxZrQaja6cPMHrUHCz+eisOH7qCB/cLZes5VjVX4EyFSaDd/0cM45YUQf7PEIBDmXOcqSg6zDNG5GSjBZZRFXcuwSSsdWhQuYUEczIFnQUVmepNEArNQmH5JtmUqaQG/I92n/8dArDb+czTZ9awIHWI1rH7758ShuDwlM2vlEoqfrT1qWQSBcRruPWMKrlJIvgzBHVelbD+ZwjgVQfgdb/uDQG85hTwhgDeEMBrPgKvefffcIA3BPCaj8Br3v03HOANAbzmI/Cad/8NB3hDAK/5CLzm3X/DAd4QwGs+Aq95999wgDcE8JqPwGve/Tcc4A0BvOYj8Jp3/w0HeEMAr/kIvObdf8oBiHF/c7x+I/D/AaIW5dMbIYMDAAAAAElFTkSuQmCC;" parent="aYajJrX3XXZS-vCC2zLg-1" vertex="1">
          <mxGeometry x="270" y="555" width="82.88" height="90" as="geometry" />
        </mxCell>
        <mxCell id="aYajJrX3XXZS-vCC2zLg-44" value="" style="endArrow=classic;html=1;rounded=0;exitX=0.5;exitY=0;exitDx=0;exitDy=0;" parent="aYajJrX3XXZS-vCC2zLg-1" source="aYajJrX3XXZS-vCC2zLg-41" edge="1">
          <mxGeometry width="50" height="50" relative="1" as="geometry">
            <mxPoint x="360" y="540" as="sourcePoint" />
            <mxPoint x="390" y="470" as="targetPoint" />
          </mxGeometry>
        </mxCell>
        <mxCell id="aYajJrX3XXZS-vCC2zLg-45" value="" style="endArrow=classic;html=1;rounded=0;exitX=0.5;exitY=0;exitDx=0;exitDy=0;" parent="aYajJrX3XXZS-vCC2zLg-1" source="aYajJrX3XXZS-vCC2zLg-41" edge="1">
          <mxGeometry width="50" height="50" relative="1" as="geometry">
            <mxPoint x="330" y="550" as="sourcePoint" />
            <mxPoint x="370" y="460" as="targetPoint" />
          </mxGeometry>
        </mxCell>
        <mxCell id="aYajJrX3XXZS-vCC2zLg-46" value="Mobile app" style="text;html=1;align=center;verticalAlign=middle;resizable=0;points=[];autosize=1;strokeColor=none;fillColor=none;" parent="aYajJrX3XXZS-vCC2zLg-1" vertex="1">
          <mxGeometry x="140" y="500" width="80" height="30" as="geometry" />
        </mxCell>
        <mxCell id="Y3ZDkhbQ208kO7wTF4wI-0" value="Cors&#xa;config" style="rhombus;" parent="aYajJrX3XXZS-vCC2zLg-1" vertex="1">
          <mxGeometry x="620" y="150" width="70" height="50" as="geometry" />
        </mxCell>
        <mxCell id="Y3ZDkhbQ208kO7wTF4wI-1" value="Cors&#xa;config" style="rhombus;" parent="aYajJrX3XXZS-vCC2zLg-1" vertex="1">
          <mxGeometry x="620" y="260" width="70" height="50" as="geometry" />
        </mxCell>
        <mxCell id="Y3ZDkhbQ208kO7wTF4wI-2" value="Cors&#xa;config" style="rhombus;" parent="aYajJrX3XXZS-vCC2zLg-1" vertex="1">
          <mxGeometry x="620" y="380" width="70" height="50" as="geometry" />
        </mxCell>
        <mxCell id="6ylTfCitcdSDcgrJC7iU-0" value="" style="endArrow=classic;html=1;rounded=0;exitX=0.5;exitY=0;exitDx=0;exitDy=0;" parent="aYajJrX3XXZS-vCC2zLg-1" source="aYajJrX3XXZS-vCC2zLg-41" edge="1">
          <mxGeometry width="50" height="50" relative="1" as="geometry">
            <mxPoint x="311" y="540" as="sourcePoint" />
            <mxPoint x="400" y="480" as="targetPoint" />
          </mxGeometry>
        </mxCell>
        <mxCell id="lZ1GAwtfskolACXaKx1U-0" value="&lt;h1&gt;Multi-API and two client&lt;/h1&gt;&lt;p&gt;Two frontends&lt;/p&gt;&lt;p&gt;Several Web API client with different response style&lt;/p&gt;&lt;p&gt;Each http client has own transformation rules in each application&lt;br&gt;&lt;/p&gt;&lt;p&gt;Several Web APIs with own&amp;nbsp;&lt;span style=&quot;background-color: initial;&quot;&gt;CORS config&lt;/span&gt;&lt;/p&gt;&lt;p&gt;&lt;br&gt;&lt;/p&gt;" style="text;html=1;strokeColor=none;fillColor=none;spacing=5;spacingTop=-20;whiteSpace=wrap;overflow=hidden;rounded=0;" parent="aYajJrX3XXZS-vCC2zLg-1" vertex="1">
          <mxGeometry x="420" y="630" width="400" height="170" as="geometry" />
        </mxCell>
        <mxCell id="MpJBVjg7BzE7sqcd2teL-0" value="" style="endArrow=classic;startArrow=classic;html=1;rounded=0;exitX=1;exitY=0.5;exitDx=0;exitDy=0;entryX=0;entryY=0.5;entryDx=0;entryDy=0;" parent="aYajJrX3XXZS-vCC2zLg-1" source="aYajJrX3XXZS-vCC2zLg-25" target="aYajJrX3XXZS-vCC2zLg-8" edge="1">
          <mxGeometry width="50" height="50" relative="1" as="geometry">
            <mxPoint x="570" y="450" as="sourcePoint" />
            <mxPoint x="650" y="450" as="targetPoint" />
          </mxGeometry>
        </mxCell>
      </root>
    </mxGraphModel>
  </diagram>
  <diagram name="4 - BFF" id="oNDUJrgjzcBPEOflHDux">
    <mxGraphModel dx="1434" dy="854" grid="1" gridSize="10" guides="1" tooltips="1" connect="1" arrows="1" fold="1" page="1" pageScale="1" pageWidth="1169" pageHeight="827" math="0" shadow="0">
      <root>
        <mxCell id="Z3JwRNZcot2EXj9s3ath-0" />
        <mxCell id="Z3JwRNZcot2EXj9s3ath-1" parent="Z3JwRNZcot2EXj9s3ath-0" />
        <mxCell id="ZfFJs36J8as3yK-4u14g-0" value="Backend for Frontend" style="rounded=0;whiteSpace=wrap;html=1;verticalAlign=top;" parent="Z3JwRNZcot2EXj9s3ath-1" vertex="1">
          <mxGeometry x="120" y="120" width="440" height="330" as="geometry" />
        </mxCell>
        <mxCell id="Z3JwRNZcot2EXj9s3ath-2" value="People Web API" style="rounded=1;whiteSpace=wrap;html=1;" parent="Z3JwRNZcot2EXj9s3ath-1" vertex="1">
          <mxGeometry x="820" y="290" width="120" height="80" as="geometry" />
        </mxCell>
        <mxCell id="Z3JwRNZcot2EXj9s3ath-3" value="Catalog Web API" style="rounded=1;whiteSpace=wrap;html=1;" parent="Z3JwRNZcot2EXj9s3ath-1" vertex="1">
          <mxGeometry x="820" y="410" width="120" height="80" as="geometry" />
        </mxCell>
        <mxCell id="Z3JwRNZcot2EXj9s3ath-4" value="Catalog&lt;br&gt;database" style="shape=cylinder3;whiteSpace=wrap;html=1;boundedLbl=1;backgroundOutline=1;size=15;" parent="Z3JwRNZcot2EXj9s3ath-1" vertex="1">
          <mxGeometry x="980" y="410" width="120" height="80" as="geometry" />
        </mxCell>
        <mxCell id="Z3JwRNZcot2EXj9s3ath-5" value="People&lt;br&gt;database" style="shape=cylinder3;whiteSpace=wrap;html=1;boundedLbl=1;backgroundOutline=1;size=15;" parent="Z3JwRNZcot2EXj9s3ath-1" vertex="1">
          <mxGeometry x="980" y="290" width="120" height="80" as="geometry" />
        </mxCell>
        <mxCell id="Z3JwRNZcot2EXj9s3ath-6" value="" style="endArrow=classic;startArrow=classic;html=1;rounded=0;exitX=1;exitY=0.5;exitDx=0;exitDy=0;entryX=0;entryY=0.5;entryDx=0;entryDy=0;entryPerimeter=0;" parent="Z3JwRNZcot2EXj9s3ath-1" source="Z3JwRNZcot2EXj9s3ath-2" target="Z3JwRNZcot2EXj9s3ath-5" edge="1">
          <mxGeometry width="50" height="50" relative="1" as="geometry">
            <mxPoint x="740" y="710" as="sourcePoint" />
            <mxPoint x="790" y="660" as="targetPoint" />
          </mxGeometry>
        </mxCell>
        <mxCell id="Z3JwRNZcot2EXj9s3ath-7" value="" style="endArrow=classic;startArrow=classic;html=1;rounded=0;exitX=1;exitY=0.5;exitDx=0;exitDy=0;entryX=0;entryY=0.5;entryDx=0;entryDy=0;entryPerimeter=0;" parent="Z3JwRNZcot2EXj9s3ath-1" source="Z3JwRNZcot2EXj9s3ath-3" target="Z3JwRNZcot2EXj9s3ath-4" edge="1">
          <mxGeometry width="50" height="50" relative="1" as="geometry">
            <mxPoint x="920" y="700" as="sourcePoint" />
            <mxPoint x="970" y="650" as="targetPoint" />
          </mxGeometry>
        </mxCell>
        <mxCell id="Z3JwRNZcot2EXj9s3ath-8" value="" style="rounded=1;whiteSpace=wrap;html=1;" parent="Z3JwRNZcot2EXj9s3ath-1" vertex="1">
          <mxGeometry x="820" y="530" width="120" height="80" as="geometry" />
        </mxCell>
        <mxCell id="Z3JwRNZcot2EXj9s3ath-9" value="" style="shape=cylinder3;whiteSpace=wrap;html=1;boundedLbl=1;backgroundOutline=1;size=15;" parent="Z3JwRNZcot2EXj9s3ath-1" vertex="1">
          <mxGeometry x="980" y="530" width="120" height="80" as="geometry" />
        </mxCell>
        <mxCell id="Z3JwRNZcot2EXj9s3ath-10" value="" style="endArrow=classic;startArrow=classic;html=1;rounded=0;exitX=1;exitY=0.5;exitDx=0;exitDy=0;entryX=0;entryY=0.5;entryDx=0;entryDy=0;entryPerimeter=0;" parent="Z3JwRNZcot2EXj9s3ath-1" source="Z3JwRNZcot2EXj9s3ath-8" target="Z3JwRNZcot2EXj9s3ath-9" edge="1">
          <mxGeometry width="50" height="50" relative="1" as="geometry">
            <mxPoint x="740" y="550" as="sourcePoint" />
            <mxPoint x="790" y="500" as="targetPoint" />
          </mxGeometry>
        </mxCell>
        <mxCell id="Z3JwRNZcot2EXj9s3ath-11" value="" style="rounded=1;whiteSpace=wrap;html=1;" parent="Z3JwRNZcot2EXj9s3ath-1" vertex="1">
          <mxGeometry x="830" y="540" width="120" height="80" as="geometry" />
        </mxCell>
        <mxCell id="Z3JwRNZcot2EXj9s3ath-12" value="" style="shape=cylinder3;whiteSpace=wrap;html=1;boundedLbl=1;backgroundOutline=1;size=15;" parent="Z3JwRNZcot2EXj9s3ath-1" vertex="1">
          <mxGeometry x="990" y="540" width="120" height="80" as="geometry" />
        </mxCell>
        <mxCell id="Z3JwRNZcot2EXj9s3ath-13" value="" style="endArrow=classic;startArrow=classic;html=1;rounded=0;exitX=1;exitY=0.5;exitDx=0;exitDy=0;entryX=0;entryY=0.5;entryDx=0;entryDy=0;entryPerimeter=0;" parent="Z3JwRNZcot2EXj9s3ath-1" source="Z3JwRNZcot2EXj9s3ath-11" target="Z3JwRNZcot2EXj9s3ath-12" edge="1">
          <mxGeometry width="50" height="50" relative="1" as="geometry">
            <mxPoint x="750" y="560" as="sourcePoint" />
            <mxPoint x="800" y="510" as="targetPoint" />
          </mxGeometry>
        </mxCell>
        <mxCell id="Z3JwRNZcot2EXj9s3ath-14" value="" style="rounded=1;whiteSpace=wrap;html=1;" parent="Z3JwRNZcot2EXj9s3ath-1" vertex="1">
          <mxGeometry x="840" y="550" width="120" height="80" as="geometry" />
        </mxCell>
        <mxCell id="Z3JwRNZcot2EXj9s3ath-15" value="" style="shape=cylinder3;whiteSpace=wrap;html=1;boundedLbl=1;backgroundOutline=1;size=15;" parent="Z3JwRNZcot2EXj9s3ath-1" vertex="1">
          <mxGeometry x="1000" y="550" width="120" height="80" as="geometry" />
        </mxCell>
        <mxCell id="Z3JwRNZcot2EXj9s3ath-16" value="" style="endArrow=classic;startArrow=classic;html=1;rounded=0;exitX=1;exitY=0.5;exitDx=0;exitDy=0;entryX=0;entryY=0.5;entryDx=0;entryDy=0;entryPerimeter=0;" parent="Z3JwRNZcot2EXj9s3ath-1" source="Z3JwRNZcot2EXj9s3ath-14" target="Z3JwRNZcot2EXj9s3ath-15" edge="1">
          <mxGeometry width="50" height="50" relative="1" as="geometry">
            <mxPoint x="760" y="570" as="sourcePoint" />
            <mxPoint x="810" y="520" as="targetPoint" />
          </mxGeometry>
        </mxCell>
        <mxCell id="Z3JwRNZcot2EXj9s3ath-17" value="Auth Web API" style="rounded=1;whiteSpace=wrap;html=1;" parent="Z3JwRNZcot2EXj9s3ath-1" vertex="1">
          <mxGeometry x="820" y="170" width="120" height="80" as="geometry" />
        </mxCell>
        <mxCell id="Z3JwRNZcot2EXj9s3ath-18" value="Identity&lt;br&gt;database" style="shape=cylinder3;whiteSpace=wrap;html=1;boundedLbl=1;backgroundOutline=1;size=15;" parent="Z3JwRNZcot2EXj9s3ath-1" vertex="1">
          <mxGeometry x="980" y="170" width="120" height="80" as="geometry" />
        </mxCell>
        <mxCell id="Z3JwRNZcot2EXj9s3ath-19" value="" style="endArrow=classic;startArrow=classic;html=1;rounded=0;exitX=1;exitY=0.5;exitDx=0;exitDy=0;entryX=0;entryY=0.5;entryDx=0;entryDy=0;entryPerimeter=0;" parent="Z3JwRNZcot2EXj9s3ath-1" source="Z3JwRNZcot2EXj9s3ath-17" target="Z3JwRNZcot2EXj9s3ath-18" edge="1">
          <mxGeometry width="50" height="50" relative="1" as="geometry">
            <mxPoint x="740" y="590" as="sourcePoint" />
            <mxPoint x="790" y="540" as="targetPoint" />
          </mxGeometry>
        </mxCell>
        <mxCell id="Z3JwRNZcot2EXj9s3ath-20" value="" style="shape=actor;whiteSpace=wrap;html=1;" parent="Z3JwRNZcot2EXj9s3ath-1" vertex="1">
          <mxGeometry x="40" y="400" width="40" height="80" as="geometry" />
        </mxCell>
        <mxCell id="Z3JwRNZcot2EXj9s3ath-21" value="Web Frontend" style="rounded=0;whiteSpace=wrap;html=1;verticalAlign=top;" parent="Z3JwRNZcot2EXj9s3ath-1" vertex="1">
          <mxGeometry x="130" y="160" width="240" height="280" as="geometry" />
        </mxCell>
        <mxCell id="Z3JwRNZcot2EXj9s3ath-22" value="{&lt;br&gt;&quot;id&quot;: 1,&lt;br&gt;&quot;name&quot;: &quot;User 1&quot;&lt;br&gt;}" style="rounded=0;whiteSpace=wrap;html=1;verticalAlign=top;" parent="Z3JwRNZcot2EXj9s3ath-1" vertex="1">
          <mxGeometry x="620" y="170" width="120" height="80" as="geometry" />
        </mxCell>
        <mxCell id="Z3JwRNZcot2EXj9s3ath-23" value="{&lt;br&gt;&quot;ID&quot;: 1,&lt;br&gt;&quot;Name&quot;: &quot;User 1&quot;&lt;br&gt;}" style="rounded=0;whiteSpace=wrap;html=1;verticalAlign=top;" parent="Z3JwRNZcot2EXj9s3ath-1" vertex="1">
          <mxGeometry x="620" y="290" width="120" height="80" as="geometry" />
        </mxCell>
        <mxCell id="Z3JwRNZcot2EXj9s3ath-24" value="{&lt;br&gt;&quot;respnse&quot;: {&lt;br&gt;&quot;data&quot;: {&lt;br&gt;&quot;result&quot;: {&lt;br&gt;}}}}" style="rounded=0;whiteSpace=wrap;html=1;verticalAlign=middle;" parent="Z3JwRNZcot2EXj9s3ath-1" vertex="1">
          <mxGeometry x="620" y="410" width="120" height="80" as="geometry" />
        </mxCell>
        <mxCell id="Z3JwRNZcot2EXj9s3ath-25" value="XML&lt;br&gt;GRPC&lt;br&gt;SOAP" style="rounded=0;whiteSpace=wrap;html=1;verticalAlign=middle;" parent="Z3JwRNZcot2EXj9s3ath-1" vertex="1">
          <mxGeometry x="620" y="530" width="120" height="80" as="geometry" />
        </mxCell>
        <mxCell id="Z3JwRNZcot2EXj9s3ath-26" value="BFF client" style="rounded=0;whiteSpace=wrap;html=1;" parent="Z3JwRNZcot2EXj9s3ath-1" vertex="1">
          <mxGeometry x="200" y="230" width="120" height="80" as="geometry" />
        </mxCell>
        <mxCell id="Z3JwRNZcot2EXj9s3ath-29" value="" style="verticalLabelPosition=bottom;verticalAlign=top;html=1;shadow=0;dashed=0;strokeWidth=1;shape=mxgraph.android.phone2;strokeColor=#c0c0c0;" parent="Z3JwRNZcot2EXj9s3ath-1" vertex="1">
          <mxGeometry x="120" y="480" width="120" height="240" as="geometry" />
        </mxCell>
        <mxCell id="Z3JwRNZcot2EXj9s3ath-30" value="BFF client" style="rounded=0;whiteSpace=wrap;html=1;" parent="Z3JwRNZcot2EXj9s3ath-1" vertex="1">
          <mxGeometry x="130" y="530" width="100" height="40" as="geometry" />
        </mxCell>
        <mxCell id="Z3JwRNZcot2EXj9s3ath-36" value="" style="endArrow=classic;startArrow=classic;html=1;rounded=0;exitX=1;exitY=0.5;exitDx=0;exitDy=0;entryX=0;entryY=0.5;entryDx=0;entryDy=0;" parent="Z3JwRNZcot2EXj9s3ath-1" source="Z3JwRNZcot2EXj9s3ath-22" target="Z3JwRNZcot2EXj9s3ath-17" edge="1">
          <mxGeometry width="50" height="50" relative="1" as="geometry">
            <mxPoint x="740" y="510" as="sourcePoint" />
            <mxPoint x="790" y="460" as="targetPoint" />
          </mxGeometry>
        </mxCell>
        <mxCell id="Z3JwRNZcot2EXj9s3ath-37" value="" style="endArrow=classic;startArrow=classic;html=1;rounded=0;exitX=1;exitY=0.5;exitDx=0;exitDy=0;entryX=0;entryY=0.5;entryDx=0;entryDy=0;" parent="Z3JwRNZcot2EXj9s3ath-1" source="Z3JwRNZcot2EXj9s3ath-23" target="Z3JwRNZcot2EXj9s3ath-2" edge="1">
          <mxGeometry width="50" height="50" relative="1" as="geometry">
            <mxPoint x="760" y="430" as="sourcePoint" />
            <mxPoint x="810" y="380" as="targetPoint" />
          </mxGeometry>
        </mxCell>
        <mxCell id="Z3JwRNZcot2EXj9s3ath-38" value="" style="endArrow=classic;startArrow=classic;html=1;rounded=0;exitX=1;exitY=0.5;exitDx=0;exitDy=0;entryX=0;entryY=0.5;entryDx=0;entryDy=0;" parent="Z3JwRNZcot2EXj9s3ath-1" source="Z3JwRNZcot2EXj9s3ath-24" target="Z3JwRNZcot2EXj9s3ath-3" edge="1">
          <mxGeometry width="50" height="50" relative="1" as="geometry">
            <mxPoint x="780" y="560" as="sourcePoint" />
            <mxPoint x="830" y="510" as="targetPoint" />
          </mxGeometry>
        </mxCell>
        <mxCell id="Z3JwRNZcot2EXj9s3ath-44" value="Mobile app" style="text;html=1;align=center;verticalAlign=middle;resizable=0;points=[];autosize=1;strokeColor=none;fillColor=none;" parent="Z3JwRNZcot2EXj9s3ath-1" vertex="1">
          <mxGeometry x="140" y="500" width="80" height="30" as="geometry" />
        </mxCell>
        <mxCell id="ZfFJs36J8as3yK-4u14g-1" value="Web API" style="rounded=0;whiteSpace=wrap;html=1;verticalAlign=top;" parent="Z3JwRNZcot2EXj9s3ath-1" vertex="1">
          <mxGeometry x="387.12" y="160" width="162.88" height="280" as="geometry" />
        </mxCell>
        <mxCell id="ZfFJs36J8as3yK-4u14g-2" value="" style="group" parent="Z3JwRNZcot2EXj9s3ath-1" vertex="1" connectable="0">
          <mxGeometry x="410" y="200" width="117.12" height="180" as="geometry" />
        </mxCell>
        <mxCell id="Z3JwRNZcot2EXj9s3ath-39" value="HTTP clients&lt;br&gt;transformations" style="rounded=0;whiteSpace=wrap;html=1;verticalAlign=top;" parent="ZfFJs36J8as3yK-4u14g-2" vertex="1">
          <mxGeometry width="117.12" height="180" as="geometry" />
        </mxCell>
        <mxCell id="Z3JwRNZcot2EXj9s3ath-40" value="" style="shape=image;verticalLabelPosition=bottom;labelBackgroundColor=default;verticalAlign=top;aspect=fixed;imageAspect=0;image=data:image/png,iVBORw0KGgoAAAANSUhEUgAAAIAAAACLCAYAAACp+ZEIAAAgAElEQVR4Ae29dXRV1xY+ev94Y/zeb1wtEvcQIRC8SHGLe0ISQkhwdyjFoRRp8ZbibWmBFihOkeJWrLi7e4AQOW7fu99c50CA9LaXl9qFzTjsc07O3nvJXFO/Oddf8OZ4rUfgL6917990Hm8I4DUngjcE8IYAXvMReM27/4YDvCGA13wEXvPuv+EAbwjgNR+B17z7bzjAGwJ4zUfgNe/+Gw7whgBe8xF4zbv/hgO8IYDXfARe8+6/4QBvCOA1H4HXvPtvOMAbAvjfHQGbzQa+ePD00ovfO/7ZrOqdzaq+tV8rl9svVCfe0/r0XuDt7fd+9l79BuDv+L7os1Wbnn2v2vd7zcL/NAdwEIDV6pgwDr7p2QsmmMxmWCxqoqxWi0yYxcLfWGCxGmC1GWG1msB7WMyA2aQm0GrVwWLRQs5WHUzmQhiNubCYtYpALDZYeV+rTV4WixE2m17uSwKS+9mf+3tNPp/7P08AHGg1sZxoI2C1yctGorBwwjmxZtisFlhMFlgtNiEIq9UGs9kGvd6CCxduYeP3ezFjxhIMH/4JBg6cjL59JqNf3yl4d8DHGDF8Dj4cvwALFmzCD3vP4km+EWabDRYSjs0As6UQNhufodrCNpnNZpl3x/n3IoL/GQJwrPbizmq1kQBMsFiNQghmi1lWv8lsgNFogEarhVZrwM2bd7Dh+/344IN5SEocgCqhGXBzioS3ewIC/VsgNCQTVULbolb1Nqjzdju8XTULlSukIzS4BYLLpcDXKxqe7s0R1qwH3u03HauW/4DLl+5CbzTCbDHCZGI7LMIBSJgiP36v2f9f4gDFTTzZOCfXbLJCpzXiwb18XL52H5u3/ohPZyzDkKEz0KnjGCQn9kdURA+ENe8GH68wuJQNh5d7LLw84hAUkI62WeOxZvUe3L2XC61eA6usZrJ2snir3F9TaMDZs1ew7rs9mPTRIiTE9EF5vwR4OkfC1y0WrdIG4Yc9J5CfT25gEwIwm42gnvB7Hn8KDmC1mmXAig4U5anRaFLjZ4UaUIseVpseJrMOVqsRj/M1WPrtVrTOHIl69TvByysc7k7N4OkcgwC/FPj6RsHTLRn+3ulwdW6OihXikJ4+AElxA1G7ehbKl0uCr3ssPJ1iUPbv4ahavgNaxA/G0sVbYLYahI1TzpsMJioHIutJbEaDRVb6k7w8XLlyC5MmfoEqFVrArVQcKldui9lzVsNoMonoAXUFE2CzGmG1aYU7kUB+q+NPQQAWi9mueZN1WoSV63UG+U6vL4DZXAiDyYD8QjM2bz6IXj2mILJ5f3i7xMO1dBjq1e6EtNQRmDhhJb7fsA+LFm5FXGw/+Hi0QEj5WPTt8xG2bTuKgjwqfIDZRkIyQafX4+atOzh+4jQ2fr8Tw4fOQON6neDvnoCKQa3Qsf1o7Np5EGazBSYjidQErmqHkmc0WmA2K7lfWGDEjm2HkZ05Gm5lw9DwnQ5YungTjCY9DKZ8GA1GmE1KJ3lDAMWQP7mAxWKQQbaYFSFQpj64n4ct3x9Fr+5TEVohCS2S30PD+m2R3mI4Ppu1CseOnMeTJ3mwWC04ceIMenb/AD5ukahasRUmTliAq9duyWqVSeP95RmAxWKD0WiWVU5lkBaAxWqGwWjG4UPnMWz4VNSplQ1Pl1gkJb6LPXuOQW8wwWIzw2QhcSorgCxKWQDUAahv5GLfnlNITRgKD+dYpCQOx917+bDQyrAaYTaTHbzhAM+RAFcRJ0hp0jaYDBZcvnwL48fMRfmAaLz11/qoGNQSnTp8iEOHr0JvssBgoRgwQafTIS9XixmfrISXWxME+rTA+LGfw2C0wGCgmWeDiexYLAIbjHrFWRTB0Rwk9+GZLFoPfm8yco5oJZixcMFa1KjaCi6lEtC9x0e4e68AtCCoeEqbrRZYzRYRVSaDDTYzYDKRkI34etFaRIR1g7tbGNav3w2drtBusbwhgOcIgB848BzwfT8cR2JsJwR4JcPLKR4tk0dhz57jyHl4HyaT9ukkieZvNWDf3uOoWzsT7i5h6NRhKq5cvwuTmXY9ZbYZFk4kJ4xuIJqE4gNwEJzy4IgtTwKkTS+EaABZgtViEQUw93Ehpk37DB5uCahRvQU2bdqjfAsWG2wWZXbCagZEtOiEoMhNaJLevv0YjZu0g69XHEYO+Vw4wGslAhwmkeNs5SSI0sfBNcFk0MvnZUs2IyaiH9xdIvFOrQ6YOH4hzp6+BhOVLiNNO5uYWVYoM+vhw1xMmbwEfj5RaNKgKzZuOAirTTl6OMAlMciO+zjOh348i/jId+HrGYdPZ3wLvd4AvU4vvgXqLmaLrhjCtsJotqFfr4nw80pAj+4fwWQkgVJ/eHZ+6cIS+uJ3VwIVq1Qsk6yYphtZrsVsgk5rws6dx9Gofld4ukWiecPu+GLeWhQWaOzKINkyWbZFaeBksbDg1NkzSEoYBh+PBKxYsRv5+QUwmfWirDkmq4TGTwjJcU+y8MePC9Gpw0h4uUdiyLufo7CwEBrdA+VBLMbi47UA/RNmjBvzJbzcY9C/1xRotQVCMBYTRYappJr70n3+EATgkL8cDFI/3fFXLt9CcmJPeLqkoEpoS6xasU80dE62Vdy3nHhlHprEPWuCwVCAPbvOIcg/HUHBLbBz1wEYjFTmjKJtK3n+68hXIQIREQYRKcMGz4KPWwu0bTMcJjOtC3r/DC9NAK0OKpgkZJPZgunTVsK9bDKmTvkahRp1ndWa/9J1JfXF704AlOskAMXGLXiSV4APPpiDIL9kVAhIwafTl+Dx4xwY9AY1UFYbTBaN9N/hw+fgU3R8/PEieLpEIDb6PZy9eBNGk85ullEJs4rMLqmBK+4+lPcmE8WRshaGDZsJL49I9O45GUajXvSLl64jtQsRkEB0Ykl06zYRPt4xmP/5RsUNTcpt/NK1JfDFb0oAKipGPmj3hcti5HsrzBYT9u8/iaS4/nAt0xQ9u03ExfO3ZUDNBipgdJsaYbaSXVJkUAnjxJvFzTpgwKfw9oxDpw7jkJtXAIuFA87f0W9AxUuZkMJBqIDRPKPJBbOIDSp3MhNQtrjDRavarEQLdQiak2w2Xck88y+0JOQ7EpyJyqpV2mWGCSOHz4OPRxw2btynFEJ7n6XtFiqdBnnxBg65b7JZEBPdB6EV0nH2zC3YxDRVYo5PospaUsdvSgCUZewk3bNK4zaL4ma2WPDFvHUI8ItBtSqpWL/6R1hMZN2ctGdeQGGzRcK0BpMehRodWqa/Bz/vOAwYMB1mCx0vRqWhP3XKqIgcJ5PxIJuFbJccwSbOFwkAmQGjgfY+J5RmoT0KaKP/3ijchzRCS8Bh5jlEFz8rQnH4+DmxNpj0Juh1RmRnDUXF8unYtvUAjHr2X2MPDJEaSNjPH2zDzRuPUblSGurXbQ+NRiPiQ+lLJFClzD5/1at9+k0JgJ2lZsvB4sozmPKg1RrRvs0IeDsnI6vV+yjQMmRKjV4ncpEEUHTiHd2k0pSvKUDzxp3hWrY5vpy/HhZOEEzQ019vgYgVDpasdgm9cuAKoDM8ESLhfTlRV6/dxvbt+7Fx4y5s3LgD+/deRN4TEg3AoJ34If69mqms2UA5Tm2eHITsno4b9QxH2xxnYVow4nGuFsH+sagWmo6HDyi+TMoXYKaZ6fh1kbMVMJifYMuWQ3B3isW0qSvFZyHPL2LJFLnild/+pgRACiYH4KTSm3f18h1EhHeGl0syZn+6FoXaAvGGKbat7G4OkJqoZ1TP++Tma5CRNgiupWKxaeOP0BtoGZhgMOrEk8b7M3bPCTJJjJ5uWgsuXnqE8ePno0unj1CjSiacSjWBh0s0fD1awM8jVb08k8UkCw5IRoO6HREX3Q9x0X0RH9MXWa1GYPiQz7B0ySZcvHBPwsUUScrtq3QZRz/NVo1wMpvFipOnTqOcTyraZA+TOAC9mOQmxXFzvc4Ck7kAdHf37DYVPp6xOHf6OowmZf0oblMyYuA3JQBZURaKAS3On72KJnU7oXxgOpYu2wSjmQob5aHDCfOMWEgAiv0p+12v1yOr9Uj4esXgyy/WwmCgrW0SfzoJht485UtQvvl7dx/hmwWb0CJ+EFzLRqCcbxwiwrpjxqffoUuXCWjUqAv8fOLh6R4DN9dI+HrHo0rl1qj3Tic0atQVDRt2Q3BQGtzdYuDhHgcP9wR4uMTD3TUSdeu2Qa9eE7Dx+/24f/+BnVjJtWj3m8WdTOuD4qJ3nwnw9ozF3n2nZREIPsDysggwUs+h69lixvWbd+Hrm4Q+3SeLQkurga/iRMersIFflQC4+jhxZKEcAJORTp5CXLl2HaHB2Qit0BK7du0RmapWOcXD85Qtk2/TgquILlWdyYD0zJHwcIvErFnL5b6iJ4i7mLpFIaz03VtsePSkEPPmbUT5gJZwd45Cw/odZdK3bD2E4cOno2G9bmidPhaVQxJRv046Ro+aie837sfly5eRm5v7lOhMJgvuP8jFV/NXIzayO4J8E+HjHo/yQTEIC+uEGjWyUeqtWFQIbYGPP1mKgnytXcabxZlFzkT95/bNHISGtkL1KhnQaguV78KiEaIpOnmOFU4CoJ46YthkuLrFYP+Bk7BaNDAZKDleNimL3uOXvv9VCYDNdMS8Rfu2FeLmjUcI9k2Fp1tznDxzRTqv1VJL56SpqF/RxgsBWGzQ6XNhtmjRs+cElCkdg7nzvhNrQPz04nfXwURrgRafzYod2w8hsFw8XJzqIiW5Ny5fycWqNbvxTt0UuJSOg49bBlqmDcO+faeh1xuhN1DDpwLIFaYI9pmSZ4bJxNgC5b4Vjx5oMOS92fD1SECgbwbatR+D0xeuIj7qXUQ1exeVQ5KwYvlWsTxEYRNYGKA3FGLhN1vgUjoamzbtlT7L35VS9LTbDgJQfgtyNDMqVEhDRvowgahxTJTd8fSSV37zqxKAmlRHFMyIe/dy0bxxV5T3S8KJExdkwOkHkEmWSVSBmaK94d9MJj1JCVMmLYW3WyLGjv4KBQWFYjoSs2fQGWA1WyWYkl+Qi47th8HHPQGR4b2xZ/dZTJ26BO/UbgO3slGICx+CJYu/x40b14VFE7alonDU+s0C43rx+Zx4aq40Ofk8TozRlIfr1+9g7Adfwc8rGpVDsrHhu724cPE8sjPGw7V0PNq2GYk7dxnp08Ns0YtOkpPzEJVCstG0aUcUarRiibCPzx20VhhrsKpnkZMSdhbo2xLXb+TAbCWHee6KV/7wqxKAWkkmhcoxAu2yxiLALxYbN+yB1UabWZk0DiKgkvbSWMjA67B82R74eiYiLWUwNJpCGSCaZwY95T8VSxtOn7qARnXboJx3GkaNmo/vNuxA86bd4eOehtjoAVi9ZjsKNZwQE4wmhymqFDfHaudksD18ycTT1uf8EysoxEp73CpRPfVcE44du4iO7UYiNDgFndp/iKtXb+CLz5fD3yce4eFdceXqbeXXZxjbbMLMWSvgVDYcO3ceKp4A6PEwcvLVgiAxXDh/A97ucRjQfwZMVp1YOa8860UuLDECeImKOXCCfqVCY8OXX6yHl3sEJk1cKq5S8QkI4laxfQ64OrgaHHY1z1bcu1uA0JA0NGncESY6YshSOSEmBckiIezYdhzlvBIQ7JeM9RsOoV3boXAvm4JaNVphy7b96pniDSR4hwomoNcrBC+fq/wSKhZBYih60CpR6jpNPr6oqLJfRAXxGrWCP5q0AH5eLVC9UgpuXL2PHTvPIzgwGXVqdMGDe7kwm3PFjV2gLURAuUwM6D9J9UXupxRcRYDK9y8LRHwPjAfo0bXLBAT6p+HR44dPn6na/gIHKdr4n3n/qxMAoVsXzt+Bl3cUevYYB4OenjmF6qGi9vJhg9FgUKvOZsPdO48RWjEFISGJuHotV9iv2cgJsDuKbCZ8v/EAAnwTUbtmFj6dvhahIenwdmuGhV9uQGGBDjot4dtWaLXalx9Xgt+QGI4fuYaqVZLg490ca9fuxYnjlwRW1qRBG+Tna2EymGGy6pGeNhTVK6cjL88BFX9GAA6CKto0EtuePSfwz7+GY8euQ8LBnnKoF9lm0Qt/5n2JEUBxz6FMLSzUILxxb4RWSMbtOw+FtXL1CLCymPlnXwxE1lg1KCgwoFO7cfB2j8Wu3UdgolUh7l2ycB0sVi12bDsJX89o1HsnC0nxgwXB2yZzOM6du6G8cSayUsp3AjCLeWBxDX/F74gwNhgLcOt2DuJjB8LfKwFzZ6/EkSPH4OeWjvf6z4SVmr1Vg23bT8OpTANsWHcYtDI46ZxQvoojALPJgJyHBagQ0hIdOgwDvad/WAJgB/gSF+8X6+DpGoetW0+IU8bhYlUWwvOsluNOeavTGWA0a/H5vLXwco/CzE/WgINL7yDZP++hN+px4uRF+HhGw9stCRWDW6GcdzzmzFoGrY4rngOk7icDK+7fV5zZX3gZLR5KC0ozrc6MrIwhCPROxBdfLBNEko97M3y7lDhALZ7k6lCjajq6dJwsfVaTT32EIublB3JczFYzunQdh/JBibh3l9xQEY2M2ytygV+FAzgaVpBvwju1OyIiopv4ANSkKBvdQSQvdlUIx2rA5UsP4EUMQLOOgvI10sQTr6BC3+bnm1GzejaCy6XByyMaVULTcGD/WRjIGcw0G6koqpVFUSP3fapnvPjUkvlMk476CLH/YvZaLWiZ+i68nKNwYP95JMb0Qc3qrVX8wWpCZqshqFWzo13cMYBEx5Xq54stIgyOIePDR6+hzD/DsWf3MeGm/N1PjeWL9yjuc4kRgGqEYktk04RmT/zwK/i4ReDkiVuiNFHRUpNYVN4xY0YFazh4jHRRRjZu0ANVQ1sh93G+wK5tVhVOtYriZ0Cnjh/Byy0Jni4xiI5qj7t3H9qDNI4BUWdFBHwu/fg0J0304tvjBsKHxLRTcQplkhKiLS/i9ul5M9GJZX8Z7EoovyfKS9xyVGApaii6lHWh4N42PM7NQUJcF/h5JWHOZ2vg6d0MUyaths2mxbSpy+HnGw9Z9BRT4gdRY/PiZJFD0HIpLDAgsFwMJk1YImgoK/sjUcVi2MaLNynmc4kRgFLo7Plw4qgwo1a1VshIHSzYN51Owxl5qQkSYhWgJJUhatZWjBvzBTxdI7B0yWaBW5NAlI3OJA8T1q/dBV+vBIFedewwDnl5WkHVkgiLHlxRQnT2CJ7JqAI8ooTSO2fWw2BQkTvhEiQNuxvWYCDayAqNVoO8/Dw8ePAAGq0OOTmPodUZYbEqbB/dvTRBGQsQYIeklPHvBlhMRPlacPfOE9R6Oxv163VBatpIlPNJwKNHD7Hp+8NwdW6Mk6fuip7CkLcspGJkgDJLGUyzoGnjDmiZOliey/wENT5Fe/7L35cYAbDhXPlcSTRZ9uw+DLcyzfDdmh/s5hYp++WGyeoXnUH57Y8fvSCRwR5dPpJECa48ykzKQJNVi4LCQlQOSYO3Wxy6dhmr8vhsdDe/DJtim2hDE4xBVI7iQGwn8PiRBmdPX8WBA8exceNurFi+Gd9v3IfVq3Zg4uQv0L7DcCQmDETzpr1Qp1ZbtGo5Ej26T0VUeB/Urd0RsVGDkJkxGqNGfYbFSzfh0JGzuHPnLvR6hWhiX1XyqFWg5MePn0NIQDqqVcmCm1M0vvlmAy5cuIPggFh8No/AD3Id5c8ozstHLyXZEc3n4cPmoGL5eOh0VklQKVZpeHmoi/2mxAhAhUXZadWRxOieqFUtEzkP6XhRka9iCUAGim4tRgiBtOR34Vo2HHfv0G7Ot8tx5UvgEEya/BVcnKLw3oBPhCj0Ro3g517snSJIpfhTHHHyiRXYuv0IUlN7IzAgEl7u0XApHQV3p3i4lUnAP/7fCJT6axxcSqehUvkecHOOR+3aWRj9/nxkZQ5A/35jMePTJUiI64x6dVujUsUk+PvE4h//twHe+lsz+HvGIbJZDyxasAE6g068lyQ2RiOZIDp14ldwLtMEXu5JaN68Kwo1FtSr1Q6dOo4VkUmUsnLyvrxS+I2ISJsZa9cehHOZ+jh29LqITAdhvzgGv+RziREAXaRchCSA2zcfwts5BsOHzBTNlR405U192X9J2eZYqQvmr4dLqaZYsXIHzCa9uHeZTMHgDhE9S5ZsgodrDOLjB6OgkPApDixBI8qx4+gw78cX/0Z2v3P7IbTJGIFKQRnw9EiSl7d3MlxdY+HqFInGDbqhb5+pWLvuBxw5dhaLl25Gt67jUKVSGlKShqFl6kCcPXlF2iPePwa3rBZoNFrcuZ2Dc2evY8umfRg0YCYa1ukM9zLRKO+XhpS4d8U9LDqRwQy9TofsjHEIDmgNN5cIHD58AjHN+yMirKeIIwYyHG139MVxVoosw8RanDnzAEHl4jFvzho7ATzzWjp+/0vPJUYAomzR1LIY8MPeE/jb3xrj4L5zItO58pWb93nKlok3m2DSW1HwRIPaNTqheVhX4Whiu0tUjwRixvYdPyIooCV8vRNx6vSFp/Yy78GDETe2gZAsIoM1WgPWrtmH6Kje8PFIhKdHIjw8Y+Hlnghvj3hENO+FKZO+wbGjp1RcQYiUA6kGk0R18/o9zJ25CnVqtEFIcAIWLFwJvZ6hXSVyFJunmKFji0RoRn5+Pg7uP4lx73+FenW6ws0lCk0adcHy5TvF93/u7FV4ucTBtWwU5s1dhd49xqNh/Q5yX1ECf8JboVBH1IWM0GlsqFyxFXr3niD+EolgUUa+wlFiBCBRLZpdVivGj/sMLs4JEv6UFf4UMvUyAfA6CXYMng0/z3js3ntMYgfMnmGfjGYNHtzPRY1qafBwjUWDeh2g06tJckw+z3yOBFBsRpw7fw1ts8bB1yMZlUJaoWqlDHh5RKBiSCqyMobh4P5zyk9gUxyCCpYQsOgMCg7G4A2JkPe8c+cJUlOGwKNsNKZNnQ+9gX+jxcB2cNWqGL1i90aYzAzx0iLQYtnS7xHRdBCcS0cgNqY7Duw7hQ/GzBEXcVbGaIwe9TmqV01HYQHvyfSU4iW66iu5mgoqNWvSE2lp7wrnUHrU704AnASDpG1lpA9GaGh7GPTEA3BwlQLIDhY92CnKNYaDg3xS0KPLJAGGUB/gpNApotPpERXZFZ6uifBwi8CyZbvtziDFLjnxKnBC3L8NX32xBcGBzP5V0bhqlbLhXCoaaSnDcOe2VvwRnFijoUCZn3ZxwbbwmTLQNspbAjqYlML0MSaeFqJD9jh4O8dh8uRFooGTcBUh0OPEAI7CPMpiIFHaU9qIVlq4aCOCA9Pg4x6NiZOW4u3q7fB2tbYY2H86Koem4Eku8QEKcPr8MnGMGMeXhKb0qbZtxqJhg7Z2E5rtfn5sHVf93LnkOIBoqQbkPtKjbu0spKVTQ2fDaKey4VRvnm8kB5vUO+jdT+DhGi0ykaARDqYKsljwxdwNktZVPigLoaHJKCykKUhbW7FeuYfNhpycfHTrMgZuzs3QInm4ZAMzeti4YRf8sJsxfy1MlifK2SJACzsAVAhUcRQOFu/nYLfK9FLsnngA5hP26DYRnm7h2LblR5kQhWKim5l9VK5cXs+XgFoFGUTt3YpbN+/LhLu7hcPDI16ArKmJo1GhfAJyc5nlTF+F+vfyxBHEaley/z1uI4bPR4WQBOWnsOjtwaqXr/q5b0qUAMxmPS5duINy3jGY/ul3wtq5GjihalDJ4tQg8TsSyNUrt+HjHoM+PafBZtPZkT+QDNuTpy7CzzMOHTp8gLerd0JW1jDo9XQHk00r7kI7/OKF60hNHAYv9+YYMXwewpr1Eu183NjPUaihksi8e4VDZAsY7OMqU5Bsmo9KESUrF3ZuZ+0OjiBtp31vNeLho0dITX4PIYGxuH+X4FIFdKVS6DiEA8DMnsIibF2ZyPyJwWTCwoVbUT4oWfIB3VxiUSk0Ebm5+Up/sXMkx70cZxEP4gZXxPrJxyskusqFTwi8AqY6fv3LzyVHAKR0sxFHDp+Hy1vNsXPHUcVOX2iLyp9XK5+TMmXiQvi5JeLyhfui0FARIqPQGszIyh6KwHJJOHryCpzLRuHzz9c8W/n/5hwUMQ8e5KJBnbYICozBlKkrUc6XbuGW2LHtKIgddHAKNoPvX+VQXIHcTHkBTxy9Ch+veHRq/z6MIuZMMBcb2Xz5aXQwcQx2bj2NoIAkBAalIKR8DPIJcKEIEn3p5XayDY4X9ZX5n6+Hm1ME9HqVgyDs4eXH/ew3JUgAykmxfduPKPP3xrh588lLA86GK05gEZb86FEeqoRkIj6qn1gJBIkwH4D5dMtWbIGbSzg++mghPvl0CYLKpeLYiasq6YIp2iYrCgr0qF45RVC98+atgb9PBAL9UnDj+kOYraoUi0O5U5P4vAj62dEp8gM1+Ap1zEmaOHEhynklYtf244pz/cJbqyieDga9GfFxfeDrk4oqldPxhN5MyXNUXKjIo+WtY/J5Zp+WL9sFD9cI3LpFFzhZ2jMO9OK1/+lziRIA3bgb1++Dy1tN8OgRwRbPU7IysSgf6ZQxYM6M5fD+d4GFk8cZK1DIHOkogKaNO6FB3Q6SH9e+/RhUq9wKeqnCoSBidCH37zseHi6RmDv3O7xTqxPq1mqLWzefCDTcaFAKnaMNjvN/Goz/9DdeL2JHEL4maDRGVApJRZvWo5QF8QKI5KfupSDkjFaa0KXrWHi4J8PVOQKTJy+26xB2+fTCDWRc7FyABLBhwwFJQD116qpcJwrJC9f8ko8lSACKfa1dtRvuZcOEol8cdKXBKn2AnYhs0hMRzbqJz53sj5PG32zduhceznH4asF65OXl4u0a2ejQ/iOYJFagHDxffLYKPu4pGP3+l2japDNqVeuA8+duw4JCu+9BEQAHgQTnGMBfMigv/4bsVwW6+DeKLuYfzJyxTOTwvt2XAPyyBE6JTzC/0WTC+6Pnwt09Dr7eLQS1vGv3CcmUUhrK861wtJ9njt3WLYfh7RGBH388q1zwRXSQ57kIjpgAACAASURBVK/8z59KkACUPbxu7W54OkWgoOAZVMrRBCnGIKVWHuPsqRy4uUVg7qwlCmxpsQpayGDUo+bbLVCzaiYKCoy4dzsfZco0xccfL5eoFwmksDAfVSq1RkRkW7w/6gu4l22GA/uP2DGGZKHKKeN47v/fsyhgYvezj3bPpdGGfI0GVaqkok3meJit+UJk5HKMODrMw6ITJ1YCA1RU5qwGzJ69HGVLR8LbJ0IcXDHhg8TDSE7j0JWemdDPdADeZ8+ek4KV2LmDOAvqJg5I3X/X2xIkADUwm78/AOd/NcH9+y/j3ZnYKSVZLAXo02MKggIScefWY3G40GSiCXjm9DV4ucZi9qw1Mqi3bz/AW/+MxYqVeyVdigmdvbtPhIdbFL6avwel/tFIwBbkHg5QqWjzYpb+d4PxU78uOoliJQjQhChhK/r2+QTMIOJEOWL5IpLtyhyvdXAg3p9xEa5wWiCLF2+Gq3MM3irVFP6+yXB3aY5VK5gnQe5F85Nncpxnk++43/btR+DtEYv9+86qQNjvzwFIAFbs3nUUpf7aEJcuqiyZooNKaLfJTOVNg9Dy6ejRfbIMDv3bdCLRZz5pwgKULdUY1248gN6ixekT9+Di1kSQtOu/24WvF21ESPloxMX3Q0J8X1QMTsOt2/dhMLJAE6ttqGQU5aFTA1e0Da/yXhEA+0dHDaHjhLrrBZ7N6mKuzvWxefMpO7zc4QxS5q6sTrsuxPswY4muW4NRixUrdqLUv5oiJXkkKoZk4e3q6YiOeFcm3nGdXGMHtqh2KILatOmgQOUO/Ui3OMvl/UIt9IUBKGEOYMaJ4xfh8lYYtm552QwksJHtPHzsEpxKRWLDBhZ9UDFu+hB0GhNqV2+JRg264ONPViE7e6j4vL084+HhGgf30rFwKR0DV+cEidT5ejAsnIDQ4GQkxPfB9E+/xenTV+z+ejs45Scwdi+Mw3MfHQPtOFPhpJNGAkGEfJls0OpUGdlHD4yoWS0VaWnvy/cS9KLHTkAaz7yVT30KdlOSq3zu3NXwdE/AtE++gXPpePToOQ4+7sm4ffu+PUVOeUqf+SkUQZOjrF61C15u0Thz5oYQ5SsaASVXK5irnyvj2tV78PdIxOxZK5/KS1kA4mQhB7BgzPhZ8HSJx727D6HTaaEpNOPkybPo2mkE/Dzi4ebMoE0yatXohJiod+Hq0ghfL96Mi5dvISKqPRo07IH4+P6o9042lq/YjAG956BOzY7wcE2Aq1NDxES0x9Ej58WdqziBEk+OCeVss01PXw7vm13LVrJarTTa7Y8e5uHIoQtY/PUGjBj6CTLT+6Np4y6oUTkeVUKiERKQDG+vDMREdES3TqMw8cPPsHb1Tpw4fg737uUIyJUwMd6XdRD0OrrHTejW9X1p83cbv4eXc0uMfP9TOJeJwoIFi+3mrhUGg6PIxTMxQO7w9aIN8HSLxu3bueKqJkT+VY6S4wCSVkWwowH16rRBVvZEe/ya6VR07bK8mgEajQk1305Hx/aTcO3GbUz8cAGqVk6Gj2cMPFwjUc4vEatW7ce9Ow9RUKDFuvUH4eIUjtOnr+Hipatg1c7J0xbC3zcOkycsFhucOP/CQi2uX32AebM2oHxwIny8o9EmYzSMJiP0+kJZnTQ9SQRqMhQBUI6bCcSQCmGUuSZoDQas+W4HunUbj+qVW6OcTxJcyjZB2dL1UTEkERHhPZCdNRwd249Hr16TkZo2GE5lwhEfPxBNmnRAhfIpcHcOg5dLpLyCfGORFNsfo0d8ic0bDyIvl7hBK5o2aieYxr0/XEXF8qkYNHAWGjVoj4z0PjAa6VcxSv6DJKIUCRVzLOfMWyEFs5idTs5KxfJVjhIjAIUGMgp2Lr3FQFSv3l6KIZDVsVoWV6LFosGFC9fg5twYDd8ZgIqByfDziEZ25jCsW7cPHdqNR41qGeJCZYCHZd+2bD2IsqXCcebsNezYcRDObzXH+6O/gLdnBI4cYm4hVxYxiBrxJBI3x+jd2HH8TRj69/sUZ05fVXBso3JEUQlT15mhcgysAiY9dvwShg39HG9XaS8u6JDARHTtNBGfz/seP+w+gdu3HiLvSaGgjs1Gcgj2yYjjx6/g7//nHezZfVr8Fvn5eslnOHbkItat3Ytpk5egfdYYVK2QJlDx2Ki+SEociED/ZHhK0uc11KmVhTbZ72PokHnw9WiGx48ZuyCMTsUAyGEdooBK4bjx8+HvGy8WowSRfn8dgINqFQzf0MGfICCgJe7fz4XepHL4TGYbzp6+gS4dxwkSp0JwIvp0n4QTR2+I9s5KmTFRPRHWpJ9U2+TgUuZu33ocTqWjcOLEJcydvQoB3gmICO+J+vXaCTchZIyrWmSvmGgqF5Fsct+Pp1ClYmtUrZiJ06eui7WhNHUqago/wAk8c/oG3u03E27OYfDxikbrlkPw7ZLt0i4D0UQEkwpo0yQrUgAqopkbYDA9wfVrD+BRJgbzP9sgPgIqtLRWeCZHUcRGrd6C4yduYOLk2Rg4cDbKB6XD2yMOVStlIsAvCTGR72Le3O/hXKYhrt94CItNA7NgDx0iTPWVq71nz4moXjVTlaRn0O33tgKE/VCuWi1Yu/YH/PMf4Th79qYkgN6/p0Fm+jC4lw2Ht2saPNwjkfukwF5pw4ZCzSOxfxu+k43M1HECD+OMMunzxwOX4Fw6Fj/+eAofjJyPcl5xgqvLbDUKFijWJxFHJpToFaaeIWRW02Am0N27eQgNSUWVKhnQMSopETWTVCPj6h8xajo8PZrBzSkGg96bJWXjmZRCBJIAWaHuSyJzHBRpvDdNWmr1OTkaBAfGYdSIBTAYDTBKTSKmr4nFJ7gGEihfkmVs0yMxrjdSk0YjwD8CHTuMQfWqLeHhEgNP92ZweisMX87fCo2WE09MhEI9PfUtWGyIi+2DqIi+bJ2kzXMMXuX4r0WAUqTIjkiNiiLlwVwRVmbNanD61BW89ffmmDXrO7Rr8yHKeScg2D8as2Z/jYhmAxDerDPo8GHMnStQoNdWM+rX6SiUzS9oFZCjXL5wDy6l4yUdqmf3qQgJTEWV0EwMHjxTfOdkxbI6ZfWzPXbZztCsjeVi9Ni//wwC/aOQED0MOh3RvhacPnkHdWu3hZtTAwzsPxm3bt2z1yRivuEzBVEpkXyG/TtRGHlvfsf221BQWCD+/I4dPpTsJce4MPKpxovEw9/bYDZaBMUc4p+GtLS+aN6wP85fOo9hg2cgyC8BM6Yvg4tTEvx8Y2XvgejwIZg2bR3u3qVlwAwnoo2tqFY5Ex3bfyhOIOpAQhxS79SqALDybH6vXlRAizv+awLgTWjiyFni3rR3CZ5g42wS7ly/YS88PZrD7d+OjcoVUzBhwkJZiTqjCRWC0jHkvU8lFqDWlEXKpXPC69TsgAEDp4nCqLZqseL+3Ud462/N8c2STejZYyoC/ZKECCZO/EallwlekJP6cvcI8eagG01WfLPwe7g7NcX6tfuxdPE2BJeLQp2aWdi66TBYw5euWWrmVBB/yeEgABKLzqBFjerZaJk+rAj6mFP+8qAzJY65jM7/isCMmd+izD+boUD7COPHfAEqi8eOXoazUyS+/norvl64ERlpQxAaGgkft0TERw3GhI++wu6dJ4RzfPDBLBgsuQAroEk5HFoXytrghFMMOpxKHAcViHt+oF6JANTNaPaxyhcLHOqhM+Zj74HTyGo9DGXLNIGfZzZqv90W128+gZZauFWPi5duwds9GnNmrYTeyIILXLFWqdxFnH39Ol3Qt/9Ue66c6ggTQ8r5Jggyt3+/aQjwTUagXzKmfbwMJsK2RBYzoeTlgwPAYtEGkxb5BTo0qJuBiuVbwvffPvSosE7Ie6LqEFHh5OSrASvuTi/fm7ANcddKQScdatVsJwmfz+Dn5BjPEwDHjcUoYiO74e3K2Vj73Q689fd6yCvMwaYNx1AhKBEHD5yDU6nmYsYqfARw69YjzJu3GnGxfeHvFwOn0hHw98xGzaodMHvmctyk04xl803EBXDc6G5m2JnFrZ85pNg/tqHo8V8TAG/AiSd1EyFD5W7Vyu2oU6snyvwzEv6+0RgxfDrmzVkJH4+GOH78AiyyWZIN69YdgL9PHDZv2q/kpz0ThtTLzRKaN+mL9IxB0j4SBxvMAWNF7eSEoRgz5nOEBGTA1zMe48Z9Ze8oWStXetFuqffsPNtrsuig1ekwd9Z6uDlHonPHCdBqWbdAI9W6OJGOFfPiAL18V/WN4HZk5xBAZ9QUzwGKEADvy2dcunATHk7NMXvGaixdthkezpGwQIcPx36J6LC+WL9uj5SRv3LpjmxIxeogDDTSyiGsPV+jR7/+U+Dr0xzhzbvLmPu4spxcO3w2bzkeP6bySU+jRYFRiriilTh4fqB+EQGw8Y4OqIGy4sSJyxg66BPUrt5abPN6dVti7ux1uHUzR9jOk8cF4hCaM2u1sHS6PknFfj4xuH79oRAA2RPz+OhZs1oLkZXxEcLCO9k/q8mjzTtgwFRUqdgGEyZ8CV+PFASXS0WvXh8JAZhZ20+07ZenijKT11Pm79t7CuUk6JKMge/OEOIyMftHMnmULKeYLC7B5OU705vLgaSlAhRq81EptCXatxsnolAN9DMR4Bg/EvTkjxbB2yVGvH0LF22Aj1uy1PuZMP4rBPnFCgE4OTfEbSZ/8v5ccFxADl+KxYLw5t0QF9MfGr0JJ06dxrSPFyMyojfcnGLh6R6Npk06of+AyVjz3S5cv263skQ0kDs885ByLv/CAeDBD3xRi6eMZ1EmKnVkK4Q70Xw6ffIq5s1eieT4fvD2SJBtV7KzRmLlmm0C4nCwGN6HR706XZDRcrDk3ukKTBgzdh78vVNU2VRRXPhMuzJlNWHC+IWoUj5DVrNUwZAS8SasXbMdgd4pGDnic5T6V30E+KcgJraflH1XihjZ7fOUzeeTMzAflDCuBu/0Qq1a7RAV0RvNGveERq/KthRzmbT95/4THYCavc2AR48LEFAuASOGzhZPHzsgRMngl+wYws9GKTRVrXIbpCb3EZNw2pRFCAloKSJ02JC5qBCcgm7dJ6Bz+w9QmE/iVMEgpWNxPkwozC9ESECacFmOMzOpqYjS13Ly9A3MnrMSma1GoEa1bDiVDpdAVfOm3dCjxwR8MX89Nm/6AWfPXLYXsjLjL7QpCcOySPaMXm2KBBs0/65R9zi3EGfPX8GMGatQr24m/LyjZYeMhnU7Y9KEzwT0IR60Ihqmg9rZuJEj5qGcT7LIX3ZixMhZCPZPV/g8cV0qQuE1VCJXrdgBD+cmyH3MbVSoI3AACK60wcslHH37zJSImYtTJKpWS5OaQyajwvsVRwDMI9QbdFKYgnsEHTpyARMnLBLb+8FDmnFMF/u5qS7+7w4CoFl348Z98VYSpmWyo3ZJAIKF5EKCUXwb06YsgJdrFM6duSfpbsOHzkTNqp0k6bNbl4moGtoGIeWT0Ln9cFlwjBiq8VSKNnWV61dzUPZfTbF58yF7LgJNSzVOJEYGqTgnWp0eJ09exEcfLUJifH/UrtEO3q4J8HJNkkRVlq+pUa0V/iIrSLZEsSHnvgHbdxzHxIkLEBfTB8H+DLawqlYkmjTsio8/XoKLV26jsJA1asiiOfjM21Oj6JgEnqlVHz1yDj5uSZgxY7mYamRLlcpnKXAFtXeyOGFJSq+4ceMxKgRH44NRn4k5RY2WnIcomqiwrqIjREX0EspOTByC/XvPQVP4xB5/f3kmycVy8zQI8E9Cj25TYYUWCxeuR9lSYbh2PU/pDsWZD8XP+XPfCpsXkcHdwq7i//w/dbFn9ylYmSUsXE2hofk7Krjkjg3qdkJcVC8RSzRd27YZhaZN+okCmxTfH+V80uDvF4c1K3co8KvdzFQihezbhsEDp6O8fxJuXH9grx6quB/vb9Tz2SQWcm4+UwezTSNKMF3lD3JycfDHy/j8i/Xo338q0lIH4S/vvfcJUlsMQK23MxDoHws/z0R4u0UhJrInhgyahrVr9+DSxWvQCrqWW6QpYCQf6CiDTgagKPUZIcjfjUYkJ/RHs0Y9RJnr3fcjVAttr/DvHCSpk6s0U8ppdrBd9lBUqZiMvDyNcArelxQ9etSnUu+vZ8+PkJoyBhUqtESvbh8VKR3/3PzIB+oX2W0GIzioJc6dvw7K/M8+Xwc3lzBcv0ksHVfYy9f9km8s4hmkSWzB6tW7UfatWFy8eEvct4oAuCppHvNlxceffA13p2isXb0DJouqXRAd1QsJCQNEyatbJxN+nsnw9g7Hw5w8e60AlRxD6DlLy+TmFiIkKBHZrT4Q5ZULRJl9yppiX6iTiO4p71XmMxcRdSG2xWSi4kviMEmtpL9UDW2JpIT30KvnVHw8bQW2b/0Rjx9qRTlTk0pftP0lZhsniihYlcjIBaTyWdSw8RrHQTNk4cLvRKu9fPkuevcdj2qVmMxApYschA1Xco5UTrGxc/spuJVtjO837bXLeCXLL1y4DQ/nKMz7bC2CA1Pg7RmPGlVbS1q4Qa/Kwzqere5lwYP7jxFULhnvvjdbRAo5Qv++dCYlS0Vx9exn7XW0+5ecuTmU5PwZTRg0cCoCfLPw+HG+mLsyXtIvtTVtzqMnCK2YjIy00XZT0wCDwYK6ddqhT5/JMmlBAVEI9EtDdFQ3WWRiloqSrMaJeyTs238UTmXCsHH9UYGCs58qPkCXIyHoNIcJR7dIPIWw9GeLTP2WDhNeRk5BzfIv7ISiWGWmcBLUxCvN3zGov2RQXvwNJ/re/QIE+CWgY7vReO+9GQKF5uQrAlA6gOM6PovmmZ9POMLD+uBJAcugcBB14KYQ7w//SjD0BIz6eCXA0yMey1ZulYwgxSaf50DrvtsNT5dEiQlodRoJPTeo0x4pcUPERmcmz6v2jzqAQa+FtsCMRnVbo2mjAXIvrjQePHNc6e2cNHmRuJr37Ttj/40Jjx8XoGJACmZ8sgIPH+gQXC5Zdidd9u024YScB8fBNlqMFgwYOAHe3gnIefjkF1srjnv81PkvlBd8keIoj/mwF18/dfHPfc9JYW2fKRMXw9MlDK0yxsjqVeFNulOfhzJLRy1m7Nx2RkChU6YssheTUuJm7dot8HROxezZa+DvnSBcoNbbnVCoyXsqLtgm3ofipG+faQITf/SEhGTB7Vv3ZRfPz+asg9FE2DiJ/ed6UfzfGaolPvHwwUtwLVsfq1aeVFbUc3a3DafPXoCXSyJ69ZwiW9WSKDje587dlkzo7duOYfeuk/D1Ska92h3stYWfnwMS0+XLtxEVMRC9+0wVQCr7VxKHWAFqwu3yo2TuK21T7lUd7vzbk+Xu3AyBgS1k/938PLuHqhgCYMdo2iQn90BwuUz8sOeYiCCWWX2Q8wA1q7VHZER3tEwZDk/3SHi6pIMr3cG5uHBoFhUWaKXYc1rKEDHVuHFj184j4OfVHDdu3LMT/avrAErZsmD8mIUI8I1FQZ7D9apEGceU+w+0zR4MP+8UXL36wF4MW4m91St/kPJxl6/cQpcuY+DuEoW5c1dJ0WvH6nf0iYM5bvyXYlHdufdEFquw8BKgAPEDsLGUIepVchTA7VG5ESPrAwwdMgeeXtEo55sqlTkkkZLejSKHECIdMxY9rly/gxrV2iI5cZCUlWcpFIqBNet2wsM5HlMnLpX0qkD/NKkLmPPAUTVLEfLtW3fh7ByGObPWiRa+9Ott8HIPx1dfrpEVxCASS7i+KgewihfUIhs6JMUPgQ1aSVLlpIkCbDJh9uyl8HSNx+dfbJAIodQUEg5rxHsDPkbdGp1x524OyvnHIjy8F/Lyuc+Bw/RTIpljwg0jqlZtjbQW70mbRdF7YfEUGcb/6u0v8gT+V3cs8mOZUBs3aDTBoAMqBGcIEnj1yl3i7aMGq4jv2UWOCWFIlrl3nk7N4OPdBCdPXIWR99GYUL9mS9R/pyPmf7UU//prE3i5xWPksDkic2kLs0zLuVPXUeYfSThw5AiWLt0JL5cEtG8z7GmxSE6Sat/PE7yjH47f82y1GLF+w36ULd0Yy5fthwU5MLGGIXclNxhx67YBFQNT0SKxl13xoyauwJtMoAkP64bMjA8watSXUgJ22eJtsgGFJIjacYP0H2h1+fhw7Hy4ODXDD3tP2k3o4pNHno3iL3/3mxCA6BZWGyZPXoKypZri46krFYLHXiCxaHNJAJR5rDNERfHQgUsI9M1CgF8UJkyaLSv28OEz8POOQb8+n6BDh+EI8EmHj3tzrF6+S7iHwViII4dPwtMjGknxw+DpGo3uXSbK7iQyeS8oukWfX9x7XqPCuSQalQPJ3c2aNOyI5s26Qyv1ChhQYtq5GXl5hahdsxVqVM7AtcssjqmUTd6H9jm3qa9WNQOVK7SGt2eklI25cvGOEAB/o/QEchKDZD0HeEejS+dxMDjKz6mtUYpr6n/93a9KAEqG0Z9NhcmCgkID6tTogMos/5b/UGxoNbjP2s3PanXaNWmbCecu3kBqi0HwcE5A40ZdseibdUhPHSGRwa1bjyMqsgfKeaWiUoUUyUk8ePAChg6eAXfnSPh5JUolDsbsaQ+zTUVl67Mn/+d3JErVDxVf+GHvafh6xEuSJn31ir2bodMV4L1+M+Bcqik2rjugilnLvkOcUDq2dLh7txBe/97swserBXw8ktGoQVshTu5yQqJXYoTVUK3o1f1D+HrE4fiJy9AZGBBSxMTflMTxqxKAmEJSeEFZGNR+e3WbBH/fdPTr/yEMWsWGn+uIlIp1mFK8jgOuYhFLlmxB00Zd4VwmBkEB0XBzCkP5wGRktBwi1UC4tYqnW4TAurw9ouDtkoRDB25Ca3gEsyVPbd9ilzEktF86iM+IktaSBbmPNHi7VhvUqtkKjx8VCvqIxMVM4VkzlwjhTZ+2XNrNVazCs0r75yTPmrkRHp5RshMIYeFffvW9AGnoEpTkFlrvVgu2bj4MD9fGGDNmoQKyip3PfQdYR+BPQAAcLFk5dmiU2WDA4q83w883A+6uMVj/3bbidQCp0EGWSq8jua8VFtlxjOAOC27fz8EHo5YhJXGkFGtwLZ2AShVTUa1KBwT6Z6JOnXY4d/GWbCq9YztTxhwWjoqEcUIdr+eI7z98cJjLVMBmf7oMTk6JOHjossIRMLAFKz6b9Q3K/i0FnTqPs9cRpBdTYQ0MTOO2mnBg/wl4ujdFlWqZSGs5AuWDUu1FK7WwCIu3gpXP7t17grq1slGpYrqEgDkOrDQijjc6315QoP9D0//jn35VDvDikykGTp68glJv1YOPZxJCgpNwiMmNDGLYt3FTsf3nFTPHZBU9E+plMJhx6MhFuLs1RWxMP9y7n4/MzCHiQ2jWuKvkF8yYuVKhlcg6BT3kYLH0ASin14vtLPocvlfRUQtMFi3Wb/xBIn8dO4+WVWk2aWA2GfHZ3BXwdI1Ep/YjUZiv8v84W1QWqc9w99fJE+fbkcAR6NVzJiqEJGNA/+lC5ORG1BUoJkw2IzJbDUeQfyKOH+XGFq+G93uxX8V9/m0JwGLFkzwdKlVKRNOG/SWjpkHtLtDoaP4wf4DyX20fU7SxL04IP5OzkE3q9RYsXroVvt5RSEjog5xHhRg9eh6C/FvA1yMVyYkDZA9ibvFGlCZXsCpbxyQVgkefJzY+VybdLmPVe7JmPa5fv4XGDTqjVs02ePT4iWD3CRydM2cZSv89GV06jkHOA5qDtG6Yb2CE0aLHhYvXkJ09BF7usahVM1MALVHNh6B8UDTOnrkHJp8Yjey3spjGjf1aooafTFsMk1ntgVR0PEry/W9KAGRjdPSMGTMPbk7hWL50NyLCeqHhOx3w6FG+rBQF8Xp5Ul7stIgWejFZoNlsw4oVWxDg2wKh5Vvh1JnTWL16HwJ8k+Du0gzZrYfi0KEL0LNWv+QPcN8/4v9+2pxyEAGfQ9gbS7g0rNMJwX6tsGfvCYlucpvb/n1niTjr3OV9aAq1kslDCJpWr0HO43x8PH0VPN1jERSQgEWLtqB//5kILpcOH9d4DBo45ZnCx4CP2YaFX2+Ee6kUDBsyTWIheh2VPlWD6MUxKInPvzkB2KwGnD51Az7uUVi9cjt27TkGlzLhCGvSFY8eFUBvYIz+5wmAAAh6Gvlbg4Hl5S04efoyvD0boexbzaUq18aNZ+DtEYkgvzSpGRTWtBP27T4vZhbZrZLrL8c+yI4dBMBBZruiwnvDvUyEwNkYVbtxTYM6dVrBzS0cU6d8K8EZ3k+r1aOw0ISxY75CYLk4uDg3RnbWCNlV/O7dewgKbAF/rxSU847CjWs5MLMMrs0Crc6EbxZvhZtrGNJT+wrekO55JbZ+vY0uflMCoLBj/T+dxoi+vSYhM224rMLt247C2zUOkWG9cP3mPYkQMlWcXFiAF3bIt/JUqgxdTpAQigMGLoRgxJ3bj5CZNgKezs3AcCuTSr3c40Q++3mlw8M9GvXrd8DAgVNx4uRlAazKZlBS1YsiyCahVwdhXb1yD/Gx3eHi1AibNv+InId5GD92AQJ9WuCd2pnYsu0HQfuw3M2aVXvQpf2HCPFPlbKx7bOH4OB+pm8rfWP+Z6vh7hovpWI/n7feXgWdPg8jPpn6LbzcYtG+3VhJZ3PoJ0/7WRLLvZh7/LYEQF1Z9uu1Ys6spfBxi8XOHfvFvl25bLfsr1u9ajIOH74gio/Vylo6qtSMCmFSPiv42ot9EWcLC1WbTTDqbVLhkyFYH48UhFZoJX6DQP8k+PikwMMtCeUDW8GpTEM0qtsRA/pMx4Ivv8fBgydx7vwF3Lt3F0/y8nH48FnUqpEtUPYvv9yKRV9vEmQUy9XGRvXC6pWHMHvmGnRqPwFVQtrAo2wEalXNFuI+ePC47I7KdpPoKfoSY/vD041InDQ8ySMgxYi8JzoMHzIbns7h6NH1A+EEQtgvdvBX+vwbEwAHgxh+bvdiRY3Q1mifPVL85EwhO3H8BqpW5bY0nAAADPtJREFUSsM//14P8+Z+B+bYkT06VoHjrPIQXxgRIQwqhgbZToZs/EmuHkMGzYOfV5z4BkLKJ8LLozl8faJQo3omxoxejOTEwZI5RLj5P/9vE7iXTZLqI/XrdpbchvJBLVCtajYqVkiBq3MYfL2TpKiDc9kw/PPv9REclIzKVRLRo9c47Np5RHIDCWBhW6XgGXMjDfm4cvkxAryTZeucE6euSjvPnbmNyGbdpdjFpAlLYTLqYZOspJ8XgS/0/pU//qYEQIWKrI3ZQ8zIHfP+PJQvl4kHORaYbQViDubkFKJt25HwdI1F3VodsP/AeVk9MqDcNEICOM+HkaX3kpamlHoVhTTDaM6Xa9u1GS3p6KEhbVH2H5HwdkuGS+lwscGTk3ti+vRlmDd3I8aOWYQG9bPg45MAP+9kBPi1ROl/hkl2cO2abWXruXZtR2PosOlYsWIjrl29i/v3C0Tmsz9K+1eeT0caF213KpupKQMFkj5l0pdSCWXY4E/h4xYp+QFHj1yBwaiRothE/rxyhOoVyOA3JQCprsG98wiUsBhw5+4DVA5NR2JCH7HpWfCQA8fESkLR6tXLgpdPLDJaDMC2zT9KXj0JqDgOQB8DYdrKjUwcnkrkZFzg0qUcVKmULkWbd+88ii/nf4ce3SciMqIfKlVsLVq66AnucYJ2rlOrI5ITh2HEsLnYvGkfbt66I+ya+xaQw4i7lv14CrUmBo9RPIUSUgAb7krCVDk9li/fBHomW7f6ALM+XY6a1ZKl7vDQwfNw4/Yd+zZ2tGgIVFUIqVeYy1e65DclgKIt5Iomm5732XK4OyfgwKFTamClEjfdv0Y8yS3Ax1MWoka1LMHxRTTrjc9mr8e5MzfAPYQ45+IPsChvm0wIuQxToui7l/2K6WQyYsk3W8QDN3ToDBTqdLLDx8ljlzD+oy/h65sIb69k+PnHwM0lDqnJ/bF21T5cuHBLkj2lZrD44NWk22T3siJQOTtkjg4hTr7yMxhhtGrx3bq9si2Ml0ccAsulwdslCpktB+HgwdMiBlkw4/c8fncCyMl5gqCAWDRp1FWw7Wr1UMNX4kI+W2z4dPpiNKybhbf+8Y4AQerWTcMn05fgzPlbeMK9AZmVa6ItTWi0epkYVTRroTEUolBrRGbrwXAuE4HOXUeiUqVo+PskwbVMNBrW64SvFqzF5Wv3hFUH+bXEW39rBDfn5rIXIbEMe3afweXL95CXXwiNtkD0DG5dx13P5WzSQafPR86jHPnd5i2nwJwJL7cY2V+YlUtaZQzH2VOsiUiXtqqLxH7+nsfvRgDstJLrZhw5dgWeLgmYPecbezVvlUghGHdJVGF9YCvy8ww4dfI2pkz5GlFh78LVKUxSqoP9W4mcJs49PnaAbO+S1XoUUlNGICysB+rWaYMAvzgpqlSmVFPZ+j2oXAZmzFyPy5du2z2FStmkjpHz+BEOH7uAcWMXIj5mCPy9k2U/Qg/naAT5pyEksJXoD29Xb4v6dbuiRvW2oLJIJ5Gfd4JsBuHv20LK3Hi5paBCcAKuXb8njiiH/4HKLZVFcsHf8/hNCYATzpfjkM9Wlc7cufM4hIak4OSJK/awKf3f/D11BsUNKOdpRXAQmbhy/cYD7Np1DCwT+8H7X6J3j2lo2WIo4qL7Ij6mH5ISBiIr43306DoZH37wNZYs2oGDB8+id8/J8PGKQmbmYFy/TniY2pHMaGDwSiv3pznJZ3NXkrv37uLIkTP4bs1OzJz+Lca+Pw/9+0xDt87jBezavct49O87DWPHzMLoUV9J6jYzo8v5JcPXOxqLF2+BwUCYOyuhKdFBDzS9nsV4oh3D85ucf1cCYA+ZOmU0F+Axdwyp3hnRkV2g1SjzTzxhlKnUF0g39he5JpU9pfA5oFMKrOEgMC4sXsekEuVUYaCFbJdoXTNmzfgWocHpCPRJFSwedwWjw4a1e6jQUZ8gjNxq3/DZSh1APIRM0eJL+SOo6FFxyyvIx+qVB1G7ahaC/eIxetQ3CA5IRGbGUCnozMwn6YQ4rhToQ2ITr1jgsaSo4zclgOIarVY3PXBWbNt0DGX+3gDDBs+U0CkVOTKMZzyjuDv89HcOjuM4O1y83EVMp9Xjzs1CNGnUDmVL1YOvVwQ+/Xg18p7Q7+7gOOrhwnUsOjFTGblkHMFiK5TkDZ0OWLX8MCpXbInSpRqiXu0MXDz3AGFh3eDnFYHLFx48xVoy1v9HO/4ABCBLQtypRoMRM6evgKdLE6xevle0admf7xVJwDHxz58ddrrajURTWIg9O04hK22cVB338ghH04bd0afnVMyfv17CzZev3pNs3Tv3CnHq9E2sXLUdgwfNREriYAT5J8PNtTmaNO4iO5I9yc/H9Gkr4FymGdau3mePV6gsZLbjj3b8AQhA2fUs58JULQZT2ma+j/L+6di9+0eBUpfUuPE+yjvH7V2e2exk9wz3njlzRUrUZrYcgepV0hHknwB3p3A4l24Ol7LN4eIUBlenCEkurVSxFZo37Y2xYxZiz57DdEKLj2DZtzvg6RwtqfOsbaAylFm4gaLqDQd4aQGwGBPrAwheTux5ynKr7DdcvUpb3LrO4FDJrBzeRwAXIlqU2JEdPSQDmelllO0KNcRt7s+duSViaeO6w1i2dAe+XbJVchCOHrmMe8zOYUKNVBtjdTQb9uw8jUC/BCTE95IiVNQVmM/AiefcE972Rzt+dw7w4oBwkqjAGQ1A/frpCA5qBZ3uISysy0flz0ZYVMkQxIvPdnxWbXiG76drmQ4nnqU6GIGljGfYJ9VgzMWVS/fh65OMJk2zoNMpk/K3dOk62v7fnv9wBOAQ91QKL168j6pVk1G/Vi/cuH4fVk6+ePd+PYhU0QEkITiIgQokrY6nZzMJlUEtHXbtOivFrxs1aour13KEQCU6WULpW0XbVNLv/3AEwAHnSuOGDAyiXL76ANUqd0Sd2q1x7MgVKZFGV69jckp6QHi/F+/t+KyCWRQdFpiNhG0XYOFXmxFcriXeeacNbtx6JLWQVbxAgVV+jfaV5D3/sAQg6dH2ib7/KFdqCIYGtcSW7w8IdtBh0pXkYPzUvUgArM7BM9FHfHaBzgjGFbg1XWRYd6l0wN8Q+aug7Dz/vl6+n+pP0e//oASgWC29ZmZq60wb1+ml2ARLznz44ecyuL8FEThWP7mSQxe4du0aatRuDXf3JAwZPFO8k7J7mNRVUo4pto1i7I9+/OEIoNgBkzwBAx4/foJBgz6Fu0scWrcahjNnFLCCVoNULqF7jqgjh8euiOuZE1ncilTmJ6+nvOfT+TuVLi+Tz5R5cUVboCnU45Op36BicApC/GOx8tvd0Gm56u15f8U2/o/95Z+CABheJXzKbOFu4TYsWPAdaIeHBLfAjBlr8IibLrJSqWAOVbVP5f5VSpxjFRc3FVTWHC5lXuNIY+PzDEamk1mQn6/F+vUH0LxJL9kkqk3bYaKUqrAv8QGEl//xbPzi+vvid38KAqDvn4ETxtsJJmGI+Or1W8jMGAlPlySEVmyBzduOIK9QL5lDrEnIieThmPyfOituQUJR/gdiBwxGs4gcpmuvWrkLTRp2gqdbLCpXSsSOHSeh544hWtr3JExyDHtdnhdH90/w+U9BADQNmTwhARhJnlQ6AlOojp84j9o1M2WTyRo10jFlymIU5qvauQ6tXU2SMuNeJATK6affMZPHDBw5cl4AmlVC0uBWOgz1arXHuvU/QqPVS5FrbnDFF6+jpULR8SfQ94olxz8HAUhlci4zrmhOmEroUHY5VyNz9X9EUvIA+PqEoZxvFJLihmDs6LnYtPFHXLxwG3fv5khVb41WA42GtYM1ePDgES5fuQtu/DR50iK0bzsKdWq1gpdzNEKDUtGnx2Ts2kWgp1YVXhLdgmyFuobSN5TOQPb/x1f4iqOAPwkBFNf0579TO4ZZceToFYwaOQ8RYV2lQINr6WZwKxOGSkEtUa9mF4Q16oWwRr1Rv1YnhAanSoYSizOXD0hH7bfboU3WWHyzaD1u38oTccNwMjnJ/+rxP0MAChBKtkx0rkW0+vx87mJ2Bcu/3YEJ4xfJis5uNQxZrQaja6cPMHrUHCz+eisOH7qCB/cLZes5VjVX4EyFSaDd/0cM45YUQf7PEIBDmXOcqSg6zDNG5GSjBZZRFXcuwSSsdWhQuYUEczIFnQUVmepNEArNQmH5JtmUqaQG/I92n/8dArDb+czTZ9awIHWI1rH7758ShuDwlM2vlEoqfrT1qWQSBcRruPWMKrlJIvgzBHVelbD+ZwjgVQfgdb/uDQG85hTwhgDeEMBrPgKvefffcIA3BPCaj8Br3v03HOANAbzmI/Cad/8NB3hDAK/5CLzm3X/DAd4QwGs+Aq95999wgDcE8JqPwGve/Tcc4A0BvOYj8Jp3/w0HeEMAr/kIvObdf8oBiHF/c7x+I/D/AaIW5dMbIYMDAAAAAElFTkSuQmCC;" parent="ZfFJs36J8as3yK-4u14g-2" vertex="1">
          <mxGeometry x="17.120000000000005" y="32.72727272727273" width="59.32463157894736" height="64.42105263157893" as="geometry" />
        </mxCell>
        <mxCell id="Izis5H0GL91D6HbnLzZi-0" value="Single transformation code" style="rounded=0;whiteSpace=wrap;html=1;" parent="ZfFJs36J8as3yK-4u14g-2" vertex="1">
          <mxGeometry x="8.560000000000002" y="97.14999999999998" width="100" height="60" as="geometry" />
        </mxCell>
        <mxCell id="ZfFJs36J8as3yK-4u14g-3" value="" style="endArrow=classic;startArrow=classic;html=1;rounded=0;exitX=1;exitY=0.5;exitDx=0;exitDy=0;entryX=0;entryY=0.5;entryDx=0;entryDy=0;" parent="Z3JwRNZcot2EXj9s3ath-1" source="Z3JwRNZcot2EXj9s3ath-39" target="Z3JwRNZcot2EXj9s3ath-22" edge="1">
          <mxGeometry width="50" height="50" relative="1" as="geometry">
            <mxPoint x="560" y="460" as="sourcePoint" />
            <mxPoint x="610" y="410" as="targetPoint" />
          </mxGeometry>
        </mxCell>
        <mxCell id="ZfFJs36J8as3yK-4u14g-4" value="" style="endArrow=classic;startArrow=classic;html=1;rounded=0;exitX=0.999;exitY=0.595;exitDx=0;exitDy=0;exitPerimeter=0;entryX=0;entryY=0.5;entryDx=0;entryDy=0;" parent="Z3JwRNZcot2EXj9s3ath-1" source="Z3JwRNZcot2EXj9s3ath-39" target="Z3JwRNZcot2EXj9s3ath-23" edge="1">
          <mxGeometry width="50" height="50" relative="1" as="geometry">
            <mxPoint x="400" y="550" as="sourcePoint" />
            <mxPoint x="450" y="500" as="targetPoint" />
          </mxGeometry>
        </mxCell>
        <mxCell id="ZfFJs36J8as3yK-4u14g-5" value="" style="endArrow=classic;startArrow=classic;html=1;rounded=0;exitX=0.999;exitY=0.711;exitDx=0;exitDy=0;exitPerimeter=0;entryX=0;entryY=0.5;entryDx=0;entryDy=0;" parent="Z3JwRNZcot2EXj9s3ath-1" source="Z3JwRNZcot2EXj9s3ath-39" target="Z3JwRNZcot2EXj9s3ath-24" edge="1">
          <mxGeometry width="50" height="50" relative="1" as="geometry">
            <mxPoint x="560" y="460" as="sourcePoint" />
            <mxPoint x="610" y="410" as="targetPoint" />
          </mxGeometry>
        </mxCell>
        <mxCell id="ZfFJs36J8as3yK-4u14g-6" value="" style="endArrow=classic;startArrow=classic;html=1;rounded=0;exitX=1;exitY=0.5;exitDx=0;exitDy=0;entryX=0.009;entryY=0.789;entryDx=0;entryDy=0;entryPerimeter=0;" parent="Z3JwRNZcot2EXj9s3ath-1" source="Z3JwRNZcot2EXj9s3ath-30" target="Z3JwRNZcot2EXj9s3ath-39" edge="1">
          <mxGeometry width="50" height="50" relative="1" as="geometry">
            <mxPoint x="560" y="460" as="sourcePoint" />
            <mxPoint x="610" y="410" as="targetPoint" />
          </mxGeometry>
        </mxCell>
        <mxCell id="ZfFJs36J8as3yK-4u14g-7" value="" style="endArrow=classic;startArrow=classic;html=1;rounded=0;exitX=1;exitY=0.5;exitDx=0;exitDy=0;entryX=0;entryY=0.395;entryDx=0;entryDy=0;entryPerimeter=0;" parent="Z3JwRNZcot2EXj9s3ath-1" source="Z3JwRNZcot2EXj9s3ath-26" target="Z3JwRNZcot2EXj9s3ath-39" edge="1">
          <mxGeometry width="50" height="50" relative="1" as="geometry">
            <mxPoint x="560" y="460" as="sourcePoint" />
            <mxPoint x="610" y="410" as="targetPoint" />
          </mxGeometry>
        </mxCell>
        <mxCell id="TaSK-zggYLRgvcm2HzNJ-0" value="&lt;h1&gt;Multi-API and two client and BFF&lt;/h1&gt;&lt;p&gt;Two frontends, Web app hosted on BFF&lt;/p&gt;&lt;p&gt;Several Web API client with different response style&lt;/p&gt;&lt;p&gt;Single place for http transformation for all applications&lt;br&gt;&lt;/p&gt;&lt;p&gt;No &lt;span style=&quot;background-color: initial;&quot;&gt;CORS config&lt;/span&gt;&lt;/p&gt;&lt;p&gt;&lt;span style=&quot;background-color: initial;&quot;&gt;Reverse proxy&lt;/span&gt;&lt;/p&gt;" style="text;html=1;strokeColor=none;fillColor=none;spacing=5;spacingTop=-20;whiteSpace=wrap;overflow=hidden;rounded=0;" parent="Z3JwRNZcot2EXj9s3ath-1" vertex="1">
          <mxGeometry x="320" y="640" width="400" height="170" as="geometry" />
        </mxCell>
        <mxCell id="K-TdrrQ3CMRF4mrMc7Xh-0" value="" style="endArrow=classic;startArrow=classic;html=1;rounded=0;exitX=1;exitY=0.5;exitDx=0;exitDy=0;entryX=0;entryY=0.5;entryDx=0;entryDy=0;" parent="Z3JwRNZcot2EXj9s3ath-1" source="Z3JwRNZcot2EXj9s3ath-25" target="Z3JwRNZcot2EXj9s3ath-8" edge="1">
          <mxGeometry width="50" height="50" relative="1" as="geometry">
            <mxPoint x="750" y="460" as="sourcePoint" />
            <mxPoint x="830" y="460" as="targetPoint" />
          </mxGeometry>
        </mxCell>
        <mxCell id="CDUQA-ORqbgy5D2PzEex-0" value="Reverse proxy" style="rounded=0;whiteSpace=wrap;html=1;" parent="Z3JwRNZcot2EXj9s3ath-1" vertex="1">
          <mxGeometry x="410" y="394" width="120" height="40" as="geometry" />
        </mxCell>
      </root>
    </mxGraphModel>
  </diagram>
</mxfile>
